<svg xmlns="http://www.w3.org/2000/svg" width="146" height="34" fill="none"><path d="M41.72 10.44h3.67v14.857h-3.67V10.44Zm5.132 9.269c0-3.68 2.286-5.886 5.714-5.886 3.429 0 5.715 2.206 5.715 5.886s-2.206 5.909-5.715 5.909c-3.508 0-5.714-2.15-5.714-5.91Zm7.794 0c0-2.023-.788-3.212-2.045-3.212s-2.035 1.143-2.035 3.212.778 3.2 2.035 3.2c1.257 0 2.068-1.131 2.068-3.189l-.023-.011Zm5.098 6.354h3.542a1.897 1.897 0 0 0 1.989 1.143c1.406 0 2.137-.754 2.137-1.874v-2.057h.012a3.51 3.51 0 0 1-3.429 2c-2.686 0-4.469-2.046-4.469-5.566s1.703-5.714 4.572-5.714a3.508 3.508 0 0 1 3.428 2.16h-.102v-2.069h3.634v11.132c0 2.685-2.377 4.365-5.874 4.365-3.178-.011-5.212-1.463-5.418-3.508l-.022-.012Zm7.68-6.354c0-1.794-.823-2.926-2.126-2.926s-2.103 1.143-2.103 2.926c0 1.783.789 2.834 2.103 2.834s2.126-.971 2.126-2.834Zm5.085 0c0-3.68 2.286-5.886 5.715-5.886 3.428 0 5.714 2.206 5.714 5.886s-2.217 5.909-5.714 5.909c-3.498 0-5.692-2.15-5.692-5.91h-.023Zm7.795 0c0-2.023-.8-3.212-2.046-3.212-1.246 0-2.034 1.143-2.034 3.212s.777 3.2 2.034 3.2c1.257 0 2.068-1.131 2.068-3.189l-.022-.011Zm5.12-8.332a1.874 1.874 0 1 1 1.874 1.795 1.809 1.809 0 0 1-1.852-1.783l-.022-.011Zm0 2.698h3.714v11.268H85.48l-.057-11.268Zm17.074 5.634c0 3.669-1.646 5.794-4.446 5.794a3.51 3.51 0 0 1-3.428-2.091h-.069v5.554h-3.669V14.11h3.646v2.011h.069a3.532 3.532 0 0 1 3.428-2.171c2.88-.023 4.537 2.091 4.537 5.771l-.068-.011Zm-3.737 0c0-1.783-.835-2.937-2.126-2.937s-2.103 1.143-2.114 2.937c-.012 1.794.823 2.926 2.114 2.926s2.194-1.063 2.194-2.915l-.068-.011Zm10-5.897c3.074 0 4.983 1.451 5.005 3.783h-3.348c0-.812-.674-1.315-1.68-1.315-1.006 0-1.486.389-1.486.972s.423.765 1.269.937l2.354.48c2.286.48 3.2 1.394 3.2 3.097 0 2.286-2.114 3.84-5.257 3.84s-5.189-1.509-5.337-3.806h3.554c.103.835.766 1.326 1.84 1.326s1.577-.343 1.577-.949c0-.605-.343-.708-1.223-.89l-2.125-.447c-2.206-.468-3.36-1.622-3.36-3.348.068-2.24 1.988-3.669 5.085-3.669l-.068-.011Zm17.6 11.52h-3.555v-2.114h-.068a3.22 3.22 0 0 1-3.28 2.342 3.92 3.92 0 0 1-4.034-4.24v-7.234h3.668v6.446c0 1.326.697 2.046 1.84 2.046a1.874 1.874 0 0 0 1.84-2.15v-6.342h3.657l-.068 11.246Zm1.771-11.257h3.566v2.171h.08a3.263 3.263 0 0 1 3.211-2.377 2.926 2.926 0 0 1 3.132 2.389h.16a3.425 3.425 0 0 1 3.428-2.39 3.564 3.564 0 0 1 3.692 3.83v7.645h-3.692v-6.708c0-1.143-.537-1.783-1.577-1.783a1.605 1.605 0 0 0-1.558 1.135 1.62 1.62 0 0 0-.053.682v6.674h-3.497V18.6c0-1.143-.56-1.748-1.566-1.748a1.634 1.634 0 0 0-1.634 1.84v6.651h-3.669l-.023-11.268Zm-93.668-2.663a11.291 11.291 0 0 0-19.612-7.635H.59V33.88h30.115V19.812a11.278 11.278 0 0 0 3.76-8.4Zm-5.795 0a5.509 5.509 0 1 1-11.017.023 5.509 5.509 0 0 1 11.017-.023Zm-3.76 16.674H6.384V9.572h5.645a10.919 10.919 0 0 0-.171 1.84A11.315 11.315 0 0 0 23.16 22.715a11.05 11.05 0 0 0 1.748-.149v5.52Z" fill="#252525"/></svg>