<svg xmlns="http://www.w3.org/2000/svg" width="153" height="36" fill="none"><path d="M.917 35.1h34.2V.9H.917v34.2Zm27.618-20.39h-7.227V7.482h7.227v7.226ZM7.499 7.482h7.23V21.29h13.806v7.226H7.499V7.483ZM57.389.9a17.1 17.1 0 1 0 17.1 17.1A17.12 17.12 0 0 0 57.388.9Zm0 27.617A10.517 10.517 0 1 1 67.905 18a10.534 10.534 0 0 1-10.518 10.517ZM135.68.9a17.098 17.098 0 0 0-15.799 10.555A17.101 17.101 0 0 0 142.223 33.8a17.095 17.095 0 0 0 7.673-6.299 17.093 17.093 0 0 0 2.883-9.5A17.12 17.12 0 0 0 135.68.9Zm0 27.617A10.517 10.517 0 1 1 146.196 18a10.532 10.532 0 0 1-10.516 10.517ZM96.533.9A17.1 17.1 0 1 0 113.635 18 17.122 17.122 0 0 0 96.534.9Zm0 27.617a10.518 10.518 0 1 1 9.985-13.808h-9.984v6.582h9.984a10.537 10.537 0 0 1-9.984 7.226Z" fill="#252525"/></svg>