<svg xmlns="http://www.w3.org/2000/svg" width="150" height="36" fill="none"><path fill-rule="evenodd" clip-rule="evenodd" d="M19.564.177 19.542.14h-8.94L.008 18.298l7.27 12.723.01-.016 2.748 4.761 21.022.094 7.382-12.658h-.049l2.727-4.724L30.69.227 19.564.177Zm6.916 12.11h.056L21.28 3.158l7.68.034 8.73 15.279-2.732 4.733-7.161.004 2.497-4.325-3.814-6.596Zm-8.737-9.174 3.584 6.2h-4.962L7.87 24.045l-.58 1.001-3.848-6.733 8.867-15.2h5.434Zm-3.446 15.738 3.785-6.564h4.964l3.814 6.597-2.498 4.326-7.546.004-2.519-4.363ZM9.004 28.03l1.44-2.498 2.142-3.698 2.514 4.354 7.545-.004-.012.021 10.607.013-3.885 6.661L11.76 32.8l-2.755-4.77Z" fill="#252525"/><path d="M95.273 11.021a1.851 1.851 0 0 0 1.846-1.867 1.833 1.833 0 0 0-1.846-1.845c-1.039 0-1.866.806-1.866 1.845 0 1.04.827 1.867 1.866 1.867Zm-1.654 12.26h3.288V12.677h-3.288v10.606Zm5.201 5.091h3.225v-6.151c.615.806 2.015 1.357 3.479 1.357 3.16 0 5.07-2.418 4.985-5.77-.085-3.414-2.058-5.472-5.006-5.472-1.506 0-2.928.658-3.522 1.633l-.169-1.293h-2.991v15.696Zm3.289-10.393c0-1.591 1.06-2.652 2.588-2.652 1.548 0 2.524 1.082 2.524 2.652s-.976 2.651-2.524 2.651c-1.528 0-2.588-1.06-2.588-2.651Zm8.748 1.951c.084 2.143 1.782 3.627 4.454 3.627 2.567 0 4.349-1.357 4.349-3.542 0-1.57-.933-2.61-2.673-3.034l-1.888-.466c-.679-.17-1.103-.34-1.103-.891 0-.552.445-.912 1.103-.912.742 0 1.23.488 1.209 1.209h2.949c-.085-2.206-1.761-3.585-4.095-3.585-2.354 0-4.114 1.4-4.114 3.521 0 1.422.784 2.588 2.884 3.14l1.867.488c.551.148.785.403.785.763 0 .53-.488.87-1.315.87-.954 0-1.463-.445-1.463-1.188h-2.949Zm13.803 3.627c1.294 0 2.588-.593 3.246-1.463l.212 1.188h3.075V12.676h-3.266v5.515c0 1.59-.467 2.46-1.973 2.46-1.167 0-1.93-.53-1.93-2.503v-5.472h-3.267v6.66c0 2.524 1.4 4.221 3.903 4.221Zm11.714-.275V17.49c0-1.782.954-2.291 1.887-2.291 1.04 0 1.719.636 1.719 1.951v6.13h3.224v-5.79c0-1.803.933-2.313 1.866-2.313 1.04 0 1.74.637 1.74 1.973v6.13h3.181v-6.936c0-2.418-1.272-4.03-4.008-4.03-1.527 0-2.779.742-3.33 1.888-.637-1.146-1.739-1.888-3.5-1.888-1.167 0-2.249.53-2.885 1.379l-.128-1.019h-3.054v10.607h3.288ZM50.471 7.586h-3.478v15.697h9.63v-3.076h-6.151V7.588Zm6.485 10.374c0 3.35 2.248 5.578 5.642 5.578 3.373 0 5.621-2.227 5.621-5.579 0-3.351-2.248-5.6-5.621-5.6-3.394 0-5.642 2.249-5.642 5.6Zm3.287-.022c0-1.591.934-2.652 2.355-2.652 1.4 0 2.333 1.06 2.333 2.652 0 1.612-.933 2.673-2.333 2.673-1.421 0-2.355-1.061-2.355-2.673Zm8.502-.148c0 3.202 2.078 5.366 5.027 5.366 1.421 0 2.651-.51 3.266-1.336v1.463c0 1.464-.912 2.44-2.524 2.44-1.442 0-2.44-.68-2.503-1.888h-3.309c.297 2.906 2.546 4.857 5.621 4.857 3.628 0 5.919-2.354 5.919-6.088v-9.927h-2.949l-.17 1.082c-.594-.87-1.845-1.443-3.288-1.443-2.97 0-5.09 2.228-5.09 5.473Zm3.309-.086c0-1.527 1.018-2.545 2.312-2.545 1.506 0 2.609.997 2.609 2.545 0 1.549-1.082 2.61-2.588 2.61-1.294 0-2.333-1.061-2.333-2.61Zm9.14.256c0 3.35 2.248 5.578 5.642 5.578 3.373 0 5.621-2.227 5.621-5.579 0-3.351-2.248-5.6-5.62-5.6-3.395 0-5.643 2.249-5.643 5.6Zm3.288-.022c0-1.591.933-2.652 2.354-2.652 1.4 0 2.334 1.06 2.334 2.652 0 1.612-.934 2.673-2.334 2.673-1.42 0-2.354-1.061-2.354-2.673Z" fill="#252525"/></svg>