<svg xmlns="http://www.w3.org/2000/svg" width="136" height="28" fill="none"><path d="M43.941 22.454a3.027 3.027 0 0 1-1.908-.549 1.783 1.783 0 0 1-.72-1.497V9.814a.298.298 0 0 1 .331-.331h1.92c.217 0 .32.114.32.331v9.771c0 .435.194.652.594.652.17.007.34-.012.503-.057.229 0 .355.068.366.274l.172 1.429a.299.299 0 0 1-.275.354c-.42.139-.86.212-1.303.217Zm10.8-1.223a5.382 5.382 0 0 1-6.857 0 4.572 4.572 0 0 1 0-6.434 5.405 5.405 0 0 1 6.857 0 4.64 4.64 0 0 1 0 6.423v.011Zm-5.051-1.508a2.434 2.434 0 0 0 3.269 0 2.56 2.56 0 0 0 0-3.36 2.435 2.435 0 0 0-3.27 0 2.56 2.56 0 0 0 0 3.36Zm16.915-5.863c.217 0 .32.114.32.331v8.194a3.726 3.726 0 0 1-1.27 2.938 4.8 4.8 0 0 1-3.325 1.142 5.35 5.35 0 0 1-3.097-.857 3.429 3.429 0 0 1-1.497-2.285c0-.229 0-.332.309-.332h1.92a.424.424 0 0 1 .377.263c.124.347.372.636.697.811a2.66 2.66 0 0 0 1.28.297 2.02 2.02 0 0 0 1.474-.525 1.943 1.943 0 0 0 .537-1.429v-.72a3.829 3.829 0 0 1-2.377.743 4.436 4.436 0 0 1-3.246-1.246 4.571 4.571 0 0 1 0-6.354 4.47 4.47 0 0 1 3.246-1.234 3.84 3.84 0 0 1 2.434.788v-.182a.297.297 0 0 1 .32-.332l1.898-.011Zm-4.435 6.537a2.009 2.009 0 0 0 1.566-.674 2.8 2.8 0 0 0 0-3.429 2 2 0 0 0-1.554-.663 2.056 2.056 0 0 0-1.589.674 2.423 2.423 0 0 0-.617 1.715c-.02.623.196 1.232.606 1.703a2.069 2.069 0 0 0 1.588.674Zm14.617.834a5.405 5.405 0 0 1-6.857 0 4.652 4.652 0 0 1 0-6.434 5.417 5.417 0 0 1 6.857 0 4.64 4.64 0 0 1 0 6.423v.011Zm-5.063-1.509a2.285 2.285 0 0 0 1.646.63 2.287 2.287 0 0 0 1.634-.63 2.594 2.594 0 0 0 0-3.36 2.287 2.287 0 0 0-1.634-.628 2.285 2.285 0 0 0-1.646.629 2.595 2.595 0 0 0 0 3.36Zm10.48-7.805a1.657 1.657 0 0 1-2.182 0 1.385 1.385 0 0 1 0-2.011 1.691 1.691 0 0 1 2.182 0 1.381 1.381 0 0 1 0 2.011Zm.24 10.537a3.075 3.075 0 0 1-1.908-.548 1.806 1.806 0 0 1-.709-1.498v-6.217a.297.297 0 0 1 .332-.331h1.92c.217 0 .32.114.32.331v5.394c0 .435.194.652.583.652a1.77 1.77 0 0 0 .514-.057c.229 0 .354.068.366.274l.171 1.429a.295.295 0 0 1-.153.32.298.298 0 0 1-.121.034c-.424.14-.868.213-1.314.217Zm8.652-8.869a4.48 4.48 0 0 1 3.268 1.235 4.686 4.686 0 0 1 0 6.388 4.443 4.443 0 0 1-3.269 1.246 3.931 3.931 0 0 1-2.388-.743v4.126c0 .217-.114.32-.331.32h-1.92a.275.275 0 0 1-.32-.32v-9.372a.597.597 0 0 0-.402-.65.594.594 0 0 0-.273-.024h-.377c-.251 0-.377-.091-.377-.274v-1.349a.364.364 0 0 1 .263-.377 3.43 3.43 0 0 1 1.234-.206 2.115 2.115 0 0 1 2.069 1.143 3.852 3.852 0 0 1 2.823-1.143Zm-1.783 6.137a2.182 2.182 0 0 0 3.154 0c.43-.478.655-1.106.629-1.748a2.434 2.434 0 0 0-.629-1.749 2.184 2.184 0 0 0-3.154 0 2.526 2.526 0 0 0-.606 1.749 2.56 2.56 0 0 0 .606 1.748Zm11.703 2.732a5.51 5.51 0 0 1-2.937-.708 2.79 2.79 0 0 1-1.326-2.023c0-.229.08-.343.331-.343h1.68a.435.435 0 0 1 .377.251c.24.617.869.926 1.875.926.351.016.7-.055 1.017-.206a.67.67 0 0 0 .389-.56c0-.297-.183-.503-.549-.64a6.176 6.176 0 0 0-1.337-.285 12.72 12.72 0 0 1-1.6-.286 2.628 2.628 0 0 1-1.337-.766 2.446 2.446 0 0 1 .491-3.543 4.71 4.71 0 0 1 2.766-.731 5.054 5.054 0 0 1 2.697.674 2.542 2.542 0 0 1 1.257 1.794c0 .229-.103.343-.308.343h-1.692a.354.354 0 0 1-.343-.205 1.144 1.144 0 0 0-.594-.606 2.012 2.012 0 0 0-.983-.229 1.99 1.99 0 0 0-.971.195.572.572 0 0 0-.366.525.732.732 0 0 0 .549.675c.438.165.895.28 1.36.342.534.07 1.064.17 1.588.298.512.116.978.382 1.337.765a2.161 2.161 0 0 1 .56 1.566 2.287 2.287 0 0 1-1.063 1.989 4.99 4.99 0 0 1-2.868.788Zm16.011-.571a.313.313 0 0 1-.004.122.324.324 0 0 1-.143.192.309.309 0 0 1-.116.04 4.39 4.39 0 0 1-1.291.217 2.534 2.534 0 0 1-2.286-.994 4.136 4.136 0 0 1-2.914.994 3.542 3.542 0 0 1-2.674-1.04 3.74 3.74 0 0 1-1.017-2.754v-4.47c0-.217.102-.331.32-.331h1.92c.217 0 .32.114.32.331v4.126a2.02 2.02 0 0 0 .491 1.406 1.72 1.72 0 0 0 1.314.537 1.894 1.894 0 0 0 1.372-.503 1.835 1.835 0 0 0 .514-1.36V14.19c0-.217.103-.331.32-.331h1.943c.217 0 .32.114.32.331v5.383c0 .446.194.663.571.663.177.007.355-.012.526-.057a.296.296 0 0 1 .377.274l.137 1.429Zm18.16 0a.278.278 0 0 1-.048.239.278.278 0 0 1-.095.081.274.274 0 0 1-.12.034 4.43 4.43 0 0 1-1.314.217 3.047 3.047 0 0 1-1.908-.549 1.779 1.779 0 0 1-.766-1.497v-2.685a2.025 2.025 0 0 0-.48-1.406 1.623 1.623 0 0 0-1.28-.537 1.436 1.436 0 0 0-1.143.503 2.03 2.03 0 0 0-.434 1.348v4.217c0 .217-.103.332-.32.332h-1.932a.295.295 0 0 1-.331-.331v-4.126a2.117 2.117 0 0 0-.446-1.406 1.479 1.479 0 0 0-1.143-.537 1.655 1.655 0 0 0-1.257.503c-.327.37-.495.855-.468 1.348v4.217a.3.3 0 0 1-.198.318.303.303 0 0 1-.134.014h-1.863c-.217 0-.32-.115-.32-.332v-5.383a.576.576 0 0 0-.024-.273.59.59 0 0 0-.65-.401h-.377c-.252 0-.377-.091-.377-.274v-1.349a.364.364 0 0 1 .263-.377 3.43 3.43 0 0 1 1.234-.206 2.15 2.15 0 0 1 2.034 1.052 3.854 3.854 0 0 1 2.903-1.052 3.278 3.278 0 0 1 2.709 1.212 3.77 3.77 0 0 1 2.994-1.212 3.615 3.615 0 0 1 2.708 1.04 3.721 3.721 0 0 1 1.018 2.754v2.206c0 .435.194.652.56.652.177.008.354-.011.525-.057.237 0 .363.091.377.274l.103 1.429ZM1.176 12.374a15.646 15.646 0 0 1 30.365 0H30.17a11.075 11.075 0 0 0-6.48 1.977c-.11.08-.224.152-.343.217h-.16a3.262 3.262 0 0 1-.343-.217 11.623 11.623 0 0 0-12.971 0c-.11.08-.224.152-.343.217h-.16a3.262 3.262 0 0 1-.343-.217 11.075 11.075 0 0 0-6.48-1.977H1.176ZM27.7 19.54a3.852 3.852 0 0 1 2.469-.812h1.84V15.06h-1.84a7.292 7.292 0 0 0-4.377 1.394 4.16 4.16 0 0 1-4.937 0 7.772 7.772 0 0 0-8.88 0 4.16 4.16 0 0 1-4.938 0 7.292 7.292 0 0 0-4.434-1.394H.707v3.668h1.84a3.852 3.852 0 0 1 2.469.812 7.748 7.748 0 0 0 8.868 0 3.875 3.875 0 0 1 2.469-.812 3.829 3.829 0 0 1 2.468.812 7.771 7.771 0 0 0 8.88 0Zm0 6.56a3.852 3.852 0 0 1 2.469-.812h1.84V21.62h-1.84a7.292 7.292 0 0 0-4.377 1.394 4.16 4.16 0 0 1-4.937 0 7.772 7.772 0 0 0-8.88 0 4.16 4.16 0 0 1-4.938 0 7.292 7.292 0 0 0-4.434-1.394H.707v3.668h1.84a3.852 3.852 0 0 1 2.469.812 7.748 7.748 0 0 0 8.868 0 3.875 3.875 0 0 1 2.469-.812 3.829 3.829 0 0 1 2.468.812 7.771 7.771 0 0 0 8.88 0Z" fill="#252525"/></svg>