<svg xmlns="http://www.w3.org/2000/svg" width="85" height="40" fill="none"><path d="M.196 24.015h2.518v12.347H.196V24.015Zm3.979 8.116a4.482 4.482 0 1 1 4.482 4.474 4.431 4.431 0 0 1-4.482-4.474Zm6.43 0a1.946 1.946 0 1 0-1.948 1.998 1.895 1.895 0 0 0 1.947-1.998Z" fill="#252525"/><path d="M23.262 27.9v8.042c0 2.846-2.225 4.046-4.474 4.046a4.323 4.323 0 0 1-4.004-2.048l2.165-1.25a1.93 1.93 0 0 0 1.89 1.065 1.677 1.677 0 0 0 1.946-1.813v-.78a2.987 2.987 0 0 1-2.467 1.1 4.298 4.298 0 0 1 0-8.596 3.012 3.012 0 0 1 2.467 1.1v-.84l2.477-.025Zm-2.477 4.064a2.05 2.05 0 1 0-2.048 1.964 1.913 1.913 0 0 0 2.048-1.964Zm3.929.167a4.482 4.482 0 1 1 4.482 4.474 4.432 4.432 0 0 1-4.482-4.474Zm6.43 0a1.947 1.947 0 1 0-1.948 1.998 1.895 1.895 0 0 0 1.93-1.998h.018Zm3.701-6.497a1.528 1.528 0 1 1 1.528 1.528 1.535 1.535 0 0 1-1.528-1.527Zm.26 2.267h2.519v8.46h-2.519v-8.46Zm13.497 4.231a4.248 4.248 0 0 1-4.037 4.474 3.215 3.215 0 0 1-2.518-1.033v4.197h-2.518V27.901h2.518v.798a3.215 3.215 0 0 1 2.518-1.033 4.246 4.246 0 0 1 4.038 4.466Zm-2.518 0a2.014 2.014 0 1 0-2.065 2.065 1.93 1.93 0 0 0 2.049-2.065h.016Zm10.359 1.695c0 1.947-1.68 2.778-3.526 2.778a3.71 3.71 0 0 1-3.634-2.014l2.199-1.25a1.394 1.394 0 0 0 1.435.998c.613 0 .915-.193.915-.529 0-.932-4.197-.436-4.197-3.357 0-1.847 1.562-2.779 3.358-2.779a3.718 3.718 0 0 1 3.307 1.813l-2.208 1.159a1.25 1.25 0 0 0-1.141-.748c-.437 0-.705.169-.705.479.033.965 4.197.319 4.197 3.45Zm9.267-5.926v8.461h-2.52v-.789a2.895 2.895 0 0 1-2.417 1.032c-1.679 0-3.165-1.217-3.165-3.508V27.9h2.518v4.826a1.395 1.395 0 0 0 1.52 1.537c.923 0 1.57-.538 1.57-1.738V27.9h2.492Zm14.554 3.273v5.188h-2.518v-4.97c0-.839-.411-1.393-1.217-1.393s-1.326.596-1.326 1.595v4.768h-2.519v-4.97c0-.839-.403-1.393-1.217-1.393-.814 0-1.317.596-1.317 1.595v4.768h-2.52V27.9h2.519v.78a2.6 2.6 0 0 1 2.266-1.015 2.517 2.517 0 0 1 2.216 1.116 2.786 2.786 0 0 1 2.45-1.116c1.915 0 3.182 1.393 3.182 3.508Zm2.149-3.324a1.88 1.88 0 1 0 0-3.76 1.88 1.88 0 0 0 0 3.76Zm-53.72-10.24a8.805 8.805 0 1 0 0-17.61 8.805 8.805 0 0 0 0 17.61Zm19.683 0a8.805 8.805 0 1 0 0-17.61 8.805 8.805 0 0 0 0 17.61ZM17.814 0H.212v17.602h17.602V0Z" fill="#252525"/></svg>