<svg xmlns="http://www.w3.org/2000/svg" width="182" height="36" fill="none"><path d="M27.701 15.826a4.874 4.874 0 0 0-1.394 3.906l-.024-.024a5.791 5.791 0 0 1-6.259 6.259l.024.024a4.905 4.905 0 0 0-3.92 8.352 4.904 4.904 0 0 0 8.348-3.929l.025.024a5.793 5.793 0 0 1 6.259-6.258l-.025-.024a4.896 4.896 0 0 0 5.038-6.548 4.894 4.894 0 0 0-8.068-1.782h-.004Z" fill="#252525"/><path d="m17.866 22.847-.026-.024a4.842 4.842 0 0 0 5.303-5.3l.025.025a5.793 5.793 0 0 1 6.259-6.259l-.026-.024a4.903 4.903 0 1 0-4.424-4.424l-.024-.025a5.792 5.792 0 0 1-6.258 6.259l.024.025a4.843 4.843 0 0 0-5.303 5.299l-.024-.024a5.795 5.795 0 0 1-6.259 6.258l.024.024a4.903 4.903 0 1 0 4.425 4.424l.025.024a5.792 5.792 0 0 1 6.259-6.258Z" fill="#252525"/><path d="M8.93 20.17a4.87 4.87 0 0 0 1.393-3.905l.025.024a5.791 5.791 0 0 1 6.261-6.258l-.025-.024a4.902 4.902 0 1 0-4.424-4.424l-.024-.024a5.791 5.791 0 0 1-6.259 6.258l.024.024a4.895 4.895 0 1 0 3.03 8.33H8.93ZM50.232 6.872h3.96v19.27h-3.96V6.872Zm6.203 12.672a6.997 6.997 0 1 1 6.996 6.968 6.916 6.916 0 0 1-6.996-6.968Zm10.032 0a3.039 3.039 0 0 0-5.214-2.034 3.037 3.037 0 0 0 2.178 5.155 2.963 2.963 0 0 0 3.036-3.121Zm19.743-6.6v12.533c0 4.435-3.46 6.31-6.97 6.31a6.75 6.75 0 0 1-6.256-3.2l3.379-1.954a3.017 3.017 0 0 0 3.009 1.663 2.631 2.631 0 0 0 2.983-2.824v-1.207a4.688 4.688 0 0 1-3.855 1.716 6.707 6.707 0 0 1 0-13.41 4.688 4.688 0 0 1 3.855 1.717V12.94l3.854.003Zm-3.854 6.334a3.2 3.2 0 1 0-3.193 3.067 2.985 2.985 0 0 0 3.193-3.067Zm6.096.266a6.996 6.996 0 1 1 6.996 6.968 6.915 6.915 0 0 1-6.996-6.968Zm10.032 0a3.038 3.038 0 1 0-3.036 3.121 2.962 2.962 0 0 0 3.036-3.121Zm5.807-10.137a2.376 2.376 0 1 1 2.376 2.376 2.401 2.401 0 0 1-2.376-2.376Zm.4 3.537h3.961v13.2h-3.967l.006-13.2Zm21.06 6.6a6.639 6.639 0 0 1-3.791 6.342 6.629 6.629 0 0 1-2.519.626 4.952 4.952 0 0 1-3.932-1.61v6.52h-3.96V12.944h3.96v1.24a4.956 4.956 0 0 1 3.932-1.61 6.635 6.635 0 0 1 4.605 2.173 6.623 6.623 0 0 1 1.705 4.797Zm-3.96 0a3.143 3.143 0 0 0-6.227-.505 3.14 3.14 0 0 0 3.087 3.725 3.009 3.009 0 0 0 2.291-.907 3.018 3.018 0 0 0 .849-2.313Zm16.18 2.638c0 3.036-2.639 4.33-5.49 4.33a5.779 5.779 0 0 1-5.676-3.142l3.431-1.953a2.172 2.172 0 0 0 2.24 1.557c.949 0 1.425-.29 1.425-.817 0-1.453-6.494-.687-6.494-5.253 0-2.879 2.429-4.33 5.174-4.33a5.773 5.773 0 0 1 5.147 2.824l-3.379 1.822a1.91 1.91 0 0 0-1.768-1.162c-.686 0-1.109.267-1.109.74.005 1.504 6.499.5 6.499 5.384Zm14.465-9.238v13.2h-3.96v-1.241a4.523 4.523 0 0 1-3.774 1.61c-2.666 0-4.933-1.9-4.933-5.466v-8.103h3.96v7.522a2.18 2.18 0 0 0 1.371 2.255c.293.115.609.165.925.145 1.452 0 2.455-.843 2.455-2.718v-7.2l3.956-.004Zm22.706 5.094v8.104h-3.96v-7.76c0-1.32-.633-2.165-1.9-2.165-1.32 0-2.06.924-2.06 2.482v7.443h-3.958v-7.76c0-1.32-.634-2.165-1.902-2.165-1.32 0-2.058.924-2.058 2.482v7.443h-3.96v-13.2h3.96v1.214a4.052 4.052 0 0 1 3.537-1.583 3.932 3.932 0 0 1 3.457 1.741 4.347 4.347 0 0 1 3.828-1.74c3.031 0 5.016 2.165 5.016 5.464Zm3.35-5.176a2.939 2.939 0 1 0 0-5.877 2.939 2.939 0 0 0 0 5.877Z" fill="#252525"/></svg>