<svg xmlns="http://www.w3.org/2000/svg" width="104" height="40" viewBox="0 0 104 40" fill="none">
  <path d="M47.8354 35.238H50.5698V24.9237H47.8354V35.238ZM47.8354 23.3152H50.5698V20.8623H47.8354V23.3152Z" fill="#252525"/>
  <path d="M52.332 38.6159H55.0664V34.072H55.1067C55.6897 34.9566 56.6347 35.5397 58.0823 35.5397C60.7363 35.5397 62.5458 33.4286 62.5458 30.091C62.5458 26.874 60.7966 24.6423 58.0622 24.6423C56.6548 24.6423 55.6897 25.3058 55.0262 26.2105H54.9659V24.9238H52.332V38.6159ZM57.4993 33.2677C55.8707 33.2677 55.0061 32.0413 55.0061 30.1714C55.0061 28.3217 55.6897 26.8539 57.3987 26.8539C59.0876 26.8539 59.7712 28.2211 59.7712 30.1714C59.7712 32.1217 58.8866 33.2677 57.4993 33.2677Z" fill="#252525"/>
  <path d="M68.0003 35.5397C70.5738 35.5397 72.3431 34.2931 72.3431 32.2222C72.3431 29.8095 70.4331 29.327 68.704 28.9651C67.2362 28.6635 65.869 28.583 65.869 27.6984C65.869 26.9545 66.5727 26.5523 67.6384 26.5523C68.8045 26.5523 69.5082 26.9545 69.6288 28.0603H72.1019C71.9008 25.9894 70.3929 24.6423 67.6786 24.6423C65.3262 24.6423 63.4764 25.7079 63.4764 27.9396C63.4764 30.1915 65.286 30.6942 67.1357 31.0561C68.5431 31.3375 69.85 31.4381 69.85 32.4233C69.85 33.1471 69.1664 33.6095 67.96 33.6095C66.7336 33.6095 65.8891 33.0868 65.7082 31.9005H63.1748C63.3357 34.0921 65.0045 35.5397 68.0003 35.5397Z" fill="#252525"/>
  <path d="M82.7247 35.2381V24.9238H79.9903V30.8751C79.9903 32.2423 79.2062 33.2074 77.9194 33.2074C76.7533 33.2074 76.2104 32.5439 76.2104 31.3375V24.9238H73.4961V31.8C73.4961 34.0518 74.7829 35.5196 77.075 35.5196C78.5226 35.5196 79.3268 34.9767 80.0306 34.0317H80.0909V35.2381H82.7247Z" fill="#252525"/>
  <path d="M84.4937 35.2381H87.2281V29.2465C87.2281 27.8793 87.9721 26.9947 89.0779 26.9947C90.0832 26.9947 90.6663 27.5978 90.6663 28.764V35.2381H93.4007V29.2465C93.4007 27.8793 94.1044 26.9947 95.2504 26.9947C96.2557 26.9947 96.8388 27.5978 96.8388 28.764V35.2381H99.5732V28.3016C99.5732 26.0497 98.3467 24.6423 96.1753 24.6423C94.8684 24.6423 93.7827 25.3259 93.079 26.4518H93.0387C92.536 25.3661 91.4906 24.6423 90.1837 24.6423C88.7562 24.6423 87.7509 25.3661 87.1879 26.3111H87.1276V24.9238H84.4937V35.2381Z" fill="#252525"/>
  <path d="M47.876 17.572H50.6104V3.19629H47.876V17.572Z" fill="#252525"/>
  <path d="M57.2961 17.8737C60.493 17.8737 62.6845 15.5012 62.6845 12.425C62.6845 9.34881 60.493 6.97632 57.2961 6.97632C54.0993 6.97632 51.9077 9.34881 51.9077 12.425C51.9077 15.5012 54.0993 17.8737 57.2961 17.8737ZM57.2961 15.7827C55.6072 15.7827 54.6824 14.4356 54.6824 12.425C54.6824 10.4144 55.6072 9.04723 57.2961 9.04723C58.9649 9.04723 59.9099 10.4144 59.9099 12.425C59.9099 14.4356 58.9649 15.7827 57.2961 15.7827Z" fill="#252525"/>
  <path d="M68.4997 21.0907C70.0278 21.0907 71.3548 20.7288 72.2193 19.9245C72.9833 19.2208 73.4458 18.2356 73.4458 16.788V7.2578H70.8119V8.34352H70.7717C70.1484 7.47896 69.2034 6.97632 67.9166 6.97632C65.3029 6.97632 63.4531 8.9467 63.4531 12.0229C63.4531 15.1393 65.705 16.9488 67.9971 16.9488C69.304 16.9488 70.0881 16.4261 70.6913 15.7425H70.7516V16.8684C70.7516 18.2758 70.0077 19.0197 68.4595 19.0197C67.1928 19.0197 66.6098 18.5171 66.3886 17.8737H63.6743C63.9558 19.8843 65.6849 21.0907 68.4997 21.0907ZM68.4595 14.7573C67.0521 14.7573 66.1272 13.7319 66.1272 11.9827C66.1272 10.2536 67.0521 9.16786 68.4394 9.16786C70.0881 9.16786 70.8923 10.4546 70.8923 11.9626C70.8923 13.4906 70.1886 14.7573 68.4595 14.7573Z" fill="#252525"/>
  <path d="M80.092 17.8737C83.2888 17.8737 85.4804 15.5012 85.4804 12.425C85.4804 9.34881 83.2888 6.97632 80.092 6.97632C76.8952 6.97632 74.7036 9.34881 74.7036 12.425C74.7036 15.5012 76.8952 17.8737 80.092 17.8737ZM80.092 15.7827C78.4031 15.7827 77.4782 14.4356 77.4782 12.425C77.4782 10.4144 78.4031 9.04723 80.092 9.04723C81.7608 9.04723 82.7058 10.4144 82.7058 12.425C82.7058 14.4356 81.7608 15.7827 80.092 15.7827Z" fill="#252525"/>
  <path d="M87.8774 13.6312H99.6995V11.2788H87.8774V13.6312Z" fill="#252525"/>
  <path d="M100.566 23.1718C100.566 22.7091 100.941 22.334 101.404 22.334H103.079C103.542 22.334 103.917 22.7091 103.917 23.1718C103.917 23.6344 103.542 24.0095 103.079 24.0095H101.404C100.941 24.0095 100.566 23.6344 100.566 23.1718Z" fill="#252525"/>
  <path fill-rule="evenodd" clip-rule="evenodd" d="M20.2212 0C31.2669 0 40.2212 8.9543 40.2212 20C40.2212 31.0457 31.2669 40 20.2212 40C9.1755 40 0.221191 31.0457 0.221191 20C0.221191 8.9543 9.1755 0 20.2212 0ZM19.4983 1.49659C17.2167 1.81769 15.0441 3.65108 13.3576 6.7174C12.8684 7.60683 12.427 8.58946 12.0423 9.65044C14.3355 9.07417 16.8546 8.73442 19.4983 8.68187V1.49659ZM10.352 10.1308C10.8303 8.62958 11.4155 7.2484 12.0908 6.02065C12.9268 4.50059 13.919 3.18795 15.0369 2.17977C8.95798 3.94523 4.16642 8.73679 2.40097 14.8157C3.40914 13.6978 4.72179 12.7056 6.24185 11.8696C7.4696 11.1943 8.85077 10.6091 10.352 10.1308ZM9.87158 11.8211C9.29535 14.1143 8.95562 16.6334 8.90306 19.2771H1.71778C2.03889 16.9954 3.87228 14.8228 6.9386 13.1364C7.82803 12.6472 8.81065 12.2058 9.87158 11.8211ZM10.3492 19.2771C10.4089 16.392 10.8242 13.6834 11.5114 11.2902C13.9046 10.603 16.6133 10.1876 19.4983 10.1279V13.2508C18.422 16.0062 16.2268 18.2012 13.4713 19.2771H10.3492ZM8.90306 20.7229H1.71778C2.03889 23.0046 3.87228 25.1771 6.9386 26.8636C7.82803 27.3528 8.81065 27.7942 9.87158 28.1789C9.29535 25.8857 8.95562 23.3666 8.90306 20.7229ZM11.5114 28.7098C10.8242 26.3166 10.4089 23.608 10.3492 20.7229H13.4713C16.2268 21.7988 18.4221 23.9938 19.4983 26.7492V29.8721C16.6133 29.8124 13.9046 29.397 11.5114 28.7098ZM10.352 29.8692C8.85077 29.3909 7.4696 28.8057 6.24185 28.1304C4.72179 27.2944 3.40914 26.3022 2.40097 25.1843C4.16642 31.2632 8.95798 36.0548 15.0369 37.8202C13.919 36.812 12.9268 35.4994 12.0908 33.9793C11.4155 32.7516 10.8303 31.3704 10.352 29.8692ZM19.4983 38.5034C17.2167 38.1823 15.0441 36.3489 13.3576 33.2826C12.8684 32.3932 12.427 31.4105 12.0423 30.3496C14.3355 30.9258 16.8546 31.2656 19.4983 31.3181V38.5034ZM25.4055 37.8202C26.5234 36.812 27.5156 35.4994 28.3517 33.9793C29.0269 32.7516 29.6121 31.3704 30.0904 29.8692C31.5916 29.3909 32.9728 28.8057 34.2006 28.1304C35.7206 27.2944 37.0333 26.3022 38.0414 25.1843C36.276 31.2632 31.4844 36.0548 25.4055 37.8202ZM28.4001 30.3496C28.0154 31.4105 27.574 32.3932 27.0848 33.2826C25.3984 36.3489 23.2258 38.1823 20.9441 38.5034V31.3181C23.5878 31.2656 26.1069 30.9258 28.4001 30.3496ZM30.5708 28.1789C31.6317 27.7942 32.6144 27.3528 33.5038 26.8636C36.5701 25.1771 38.4035 23.0046 38.7246 20.7229H31.5393C31.4868 23.3666 31.147 25.8857 30.5708 28.1789ZM30.0933 20.7229C30.0336 23.608 29.6182 26.3166 28.931 28.7098C26.5378 29.397 23.8292 29.8124 20.9441 29.8721V26.7515C22.02 23.9951 24.2157 21.7991 26.972 20.7229H30.0933ZM31.5393 19.2771H38.7246C38.4035 16.9954 36.5701 14.8228 33.5038 13.1364C32.6144 12.6472 31.6317 12.2058 30.5708 11.8211C31.147 14.1143 31.4868 16.6334 31.5393 19.2771ZM28.931 11.2902C29.6182 13.6834 30.0336 16.392 30.0933 19.2771H26.972C24.2157 18.2009 22.02 16.0049 20.9441 13.2485V10.1279C23.8292 10.1876 26.5378 10.603 28.931 11.2902ZM30.0904 10.1308C31.5916 10.6091 32.9728 11.1943 34.2006 11.8696C35.7206 12.7056 37.0333 13.6978 38.0414 14.8157C36.276 8.73679 31.4844 3.94523 25.4055 2.17977C26.5234 3.18795 27.5156 4.50059 28.3517 6.02065C29.0269 7.2484 29.6121 8.62958 30.0904 10.1308ZM20.9441 1.49659C23.2258 1.81769 25.3984 3.65108 27.0848 6.7174C27.574 7.60684 28.0154 8.58946 28.4001 9.65044C26.1069 9.07417 23.5878 8.73442 20.9441 8.68187V1.49659Z" fill="#252525"/>
</svg>