<svg xmlns="http://www.w3.org/2000/svg" width="182" height="36" viewBox="0 0 182 36" fill="none">
  <path d="M27.7013 15.8265C27.196 16.3349 26.809 16.9485 26.568 17.6235C26.3269 18.2985 26.2377 19.0184 26.3066 19.7319L26.2826 19.7079C26.3536 20.5477 26.2402 21.3928 25.9508 22.1844C25.6613 22.9759 25.2026 23.6947 24.6068 24.2907C24.0108 24.8865 23.292 25.3453 22.5004 25.6347C21.7089 25.9241 20.8637 26.0375 20.024 25.9665L20.048 25.9905C19.0434 25.8971 18.0345 26.1156 17.1586 26.6165C16.2829 27.1175 15.5829 27.8763 15.1542 28.7896C14.7256 29.7029 14.5889 30.7261 14.763 31.72C14.9373 32.7137 15.4137 33.6296 16.1274 34.3427C16.8412 35.0557 17.7574 35.5313 18.7513 35.7045C19.7453 35.8779 20.7684 35.7403 21.6813 35.3108C22.5942 34.8812 23.3524 34.1807 23.8525 33.3044C24.3526 32.4281 24.5704 31.4191 24.476 30.4145L24.5013 30.4385C24.4304 29.5988 24.5436 28.7536 24.833 27.962C25.1225 27.1705 25.5813 26.4517 26.1772 25.8557C26.7732 25.2599 27.492 24.8011 28.2834 24.5117C29.075 24.2223 29.9201 24.1089 30.76 24.1799L30.7346 24.1559C31.5552 24.2296 32.3812 24.0951 33.136 23.7647C33.8906 23.4343 34.5498 22.9187 35.0522 22.2657C35.5546 21.6128 35.8842 20.8435 36.0101 20.0293C36.1361 19.2151 36.0545 18.3823 35.7729 17.6079C35.4913 16.8336 35.0188 16.1429 34.3992 15.5999C33.7796 15.0568 33.0329 14.6789 32.2284 14.5013C31.4238 14.3237 30.5874 14.352 29.7968 14.5836C29.0061 14.8153 28.2868 15.2428 27.7053 15.8265H27.7013Z" fill="#252525"/>
  <path d="M17.8655 22.8466L17.8401 22.8226C18.5539 22.8945 19.2747 22.8069 19.9505 22.5661C20.6263 22.3253 21.2401 21.9374 21.7476 21.4303C22.2549 20.9233 22.6435 20.3097 22.8847 19.6341C23.126 18.9585 23.2141 18.2378 23.1428 17.5239L23.1681 17.5479C23.0972 16.7081 23.2105 15.863 23.4999 15.0714C23.7893 14.2799 24.2481 13.5611 24.844 12.9651C25.44 12.3693 26.1588 11.9105 26.9503 11.6211C27.7419 11.3316 28.5869 11.2184 29.4268 11.2893L29.4015 11.2653C30.4061 11.3597 31.4153 11.1418 32.2916 10.6414C33.168 10.1411 33.8685 9.38257 34.2979 8.46941C34.7272 7.55626 34.8644 6.53289 34.6908 5.53888C34.5172 4.54486 34.0412 3.62862 33.3276 2.9151C32.6141 2.2016 31.6979 1.72554 30.7038 1.55192C29.7099 1.37828 28.6865 1.51549 27.7733 1.94485C26.8601 2.3742 26.1017 3.0748 25.6013 3.95108C25.1009 4.82734 24.8831 5.83664 24.9775 6.84128L24.9535 6.81594C25.0245 7.6558 24.9115 8.50105 24.6221 9.29268C24.3328 10.0843 23.874 10.8032 23.2781 11.3993C22.6821 11.9951 21.9632 12.4539 21.1716 12.7433C20.3799 13.0326 19.5347 13.1457 18.6948 13.0746L18.7188 13.0999C18.0051 13.0281 17.2841 13.1157 16.6084 13.3565C15.9327 13.5971 15.3188 13.9851 14.8113 14.4922C14.3039 14.9993 13.9155 15.6129 13.6741 16.2885C13.4329 16.9641 13.3448 17.6847 13.4161 18.3986L13.3921 18.3746C13.4628 19.2143 13.3493 20.0594 13.0599 20.8509C12.7703 21.6422 12.3116 22.361 11.7157 22.9569C11.1198 23.5527 10.4011 24.0114 9.60966 24.301C8.81825 24.5905 7.9732 24.7039 7.13345 24.6333L7.15745 24.6573C6.15281 24.5629 5.14352 24.7807 4.26724 25.2811C3.39097 25.7815 2.69037 26.5399 2.26102 27.4531C1.83166 28.3663 1.69444 29.3897 1.86808 30.3837C2.04172 31.3777 2.51777 32.2939 3.23128 33.0074C3.9448 33.721 4.86104 34.197 5.85505 34.3706C6.84906 34.5442 7.87244 34.407 8.7856 33.9777C9.69874 33.5483 10.4572 32.8478 10.9576 31.9715C11.458 31.0951 11.6759 30.0859 11.5815 29.0813L11.6068 29.1053C11.5359 28.2654 11.6492 27.4203 11.9387 26.6287C12.228 25.8373 12.6868 25.1185 13.2827 24.5225C13.8787 23.9266 14.5975 23.4678 15.3889 23.1785C16.1805 22.889 17.0256 22.7757 17.8655 22.8466Z" fill="#252525"/>
  <path d="M8.9292 20.1706C9.43456 19.6623 9.82147 19.0487 10.0623 18.3737C10.3032 17.6986 10.392 16.9786 10.3225 16.2653L10.3479 16.2893C10.2769 15.4493 10.3902 14.6038 10.6798 13.8121C10.9694 13.0203 11.4284 12.3014 12.0247 11.7054C12.6209 11.1094 13.34 10.6508 14.1319 10.3615C14.9237 10.0722 15.7692 9.95931 16.6092 10.0306L16.5839 10.0066C17.5881 10.1007 18.5971 9.88272 19.4729 9.3824C20.3488 8.8821 21.0489 8.12379 21.4781 7.21092C21.9072 6.29804 22.0443 5.27504 21.8707 4.2814C21.6971 3.28776 21.2211 2.37187 20.5079 1.65862C19.7947 0.945364 18.8787 0.46947 17.8851 0.295844C16.8915 0.122204 15.8684 0.259297 14.9556 0.68839C14.0427 1.11748 13.2844 1.81771 12.7841 2.69358C12.2837 3.56944 12.0657 4.57832 12.1599 5.58262L12.1359 5.55862C12.2068 6.39842 12.0935 7.24358 11.804 8.0351C11.5145 8.82662 11.0559 9.54543 10.4599 10.1414C9.86402 10.7373 9.14519 11.196 8.35367 11.4854C7.56215 11.7749 6.717 11.8882 5.8772 11.8173L5.9012 11.8413C5.08063 11.7677 4.25475 11.9025 3.50011 12.233C2.74547 12.5636 2.08647 13.0793 1.58419 13.7323C1.08191 14.3853 0.752601 15.1546 0.626761 15.9688C0.500934 16.783 0.582654 17.6158 0.864348 18.3899C1.14604 19.1642 1.61861 19.8547 2.23825 20.3977C2.85789 20.9408 3.60456 21.3185 4.40907 21.4961C5.21356 21.6736 6.04987 21.6451 6.8405 21.4135C7.63111 21.1818 8.35044 20.7544 8.93186 20.1706H8.9292Z" fill="#252525"/>
  <path d="M50.2319 6.87183H54.1919V26.1425H50.2319V6.87183Z" fill="#252525"/>
  <path d="M56.4348 19.5438C56.4293 18.159 56.8349 16.8035 57.6002 15.6494C58.3656 14.4952 59.4562 13.5942 60.7341 13.0604C62.012 12.5266 63.4194 12.384 64.7784 12.6508C66.1373 12.9176 67.3865 13.5816 68.3677 14.559C69.3489 15.5362 70.018 16.7827 70.2902 18.1406C70.5625 19.4984 70.4256 20.9066 69.8969 22.1866C69.3682 23.4664 68.4716 24.5608 67.3205 25.3307C66.1693 26.1007 64.8157 26.5118 63.4308 26.5118C62.5116 26.5223 61.5994 26.3494 60.7477 26.0032C59.896 25.6571 59.1218 25.1447 58.4705 24.496C57.819 23.8472 57.3036 23.0751 56.9541 22.2248C56.6045 21.3746 56.428 20.4631 56.4348 19.5438ZM66.4668 19.5438C66.4502 18.9468 66.2581 18.368 65.9145 17.8796C65.5708 17.3914 65.0908 17.0151 64.5345 16.7982C63.9781 16.5811 63.3702 16.5328 62.7866 16.6595C62.203 16.7862 61.6697 17.0819 61.2533 17.51C60.837 17.938 60.556 18.4794 60.4457 19.0663C60.3353 19.6531 60.4002 20.2595 60.6326 20.8096C60.865 21.3598 61.2544 21.8291 61.752 22.1591C62.2497 22.4891 62.8337 22.6651 63.4308 22.6651C63.8397 22.676 64.2465 22.602 64.6256 22.4479C65.0045 22.2938 65.3474 22.0628 65.6326 21.7696C65.9178 21.4763 66.1393 21.1271 66.2828 20.744C66.4264 20.361 66.489 19.9523 66.4668 19.5438Z" fill="#252525"/>
  <path d="M86.2093 12.9438V25.4771C86.2093 29.9118 82.7506 31.7864 79.24 31.7864C78.004 31.879 76.7662 31.6292 75.6626 31.0648C74.5592 30.5003 73.6324 29.6428 72.984 28.5864L76.3626 26.6331C76.6352 27.1838 77.0694 27.638 77.6072 27.9352C78.145 28.2323 78.7608 28.3582 79.372 28.2958C79.7626 28.3499 80.1605 28.3155 80.5361 28.1951C80.9116 28.0747 81.2553 27.8714 81.5417 27.6003C81.8281 27.3291 82.0498 26.9971 82.1906 26.6286C82.3313 26.2602 82.3873 25.8648 82.3546 25.4718V24.2651C81.8909 24.8324 81.3008 25.2832 80.6313 25.5812C79.9618 25.8792 79.232 26.0162 78.5 25.9811C76.7584 25.9262 75.1065 25.1958 73.894 23.9443C72.6814 22.693 72.0034 21.0188 72.0034 19.2764C72.0034 17.534 72.6814 15.8599 73.894 14.6086C75.1065 13.3571 76.7584 12.6267 78.5 12.5718C79.232 12.5367 79.9618 12.6736 80.6313 12.9716C81.3008 13.2696 81.8909 13.7204 82.3546 14.2878V12.9411L86.2093 12.9438ZM82.356 19.2784C82.3826 18.6403 82.2176 18.0087 81.8822 17.4651C81.5469 16.9214 81.0565 16.4906 80.4742 16.228C79.892 15.9654 79.2445 15.8831 78.615 15.9916C77.9856 16.1002 77.403 16.3946 76.9422 16.8371C76.4816 17.2795 76.1638 17.8496 76.0298 18.4742C75.896 19.0987 75.952 19.7491 76.1909 20.3415C76.4297 20.9339 76.8404 21.4414 77.37 21.7984C77.8996 22.1555 78.524 22.3459 79.1626 22.3451C79.5788 22.3742 79.9962 22.3158 80.3884 22.1736C80.7805 22.0315 81.1385 21.8087 81.4393 21.5199C81.7401 21.231 81.9772 20.8823 82.135 20.4962C82.2929 20.1102 82.3682 19.6954 82.356 19.2784Z" fill="#252525"/>
  <path d="M88.4518 19.5438C88.4464 18.159 88.8518 16.8035 89.6173 15.6494C90.3826 14.4952 91.4733 13.5942 92.7512 13.0604C94.029 12.5266 95.4365 12.384 96.7954 12.6508C98.1544 12.9176 99.4036 13.5816 100.385 14.559C101.366 15.5362 102.035 16.7827 102.307 18.1406C102.58 19.4984 102.443 20.9066 101.914 22.1866C101.385 23.4664 100.489 24.5608 99.3376 25.3307C98.1864 26.1007 96.8328 26.5118 95.4478 26.5118C94.5286 26.5223 93.6164 26.3494 92.7648 26.0032C91.913 25.6571 91.1389 25.1447 90.4876 24.496C89.8361 23.8472 89.3206 23.0751 88.9712 22.2248C88.6216 21.3746 88.445 20.4631 88.4518 19.5438ZM98.4838 19.5438C98.4673 18.9468 98.2752 18.368 97.9316 17.8796C97.5878 17.3914 97.1078 17.0151 96.5516 16.7982C95.9952 16.5811 95.3872 16.5328 94.8037 16.6595C94.2201 16.7862 93.6868 17.0819 93.2704 17.51C92.8541 17.938 92.573 18.4794 92.4626 19.0663C92.3522 19.6531 92.4173 20.2595 92.6497 20.8096C92.8821 21.3598 93.2714 21.8291 93.769 22.1591C94.2668 22.4891 94.8506 22.6651 95.4478 22.6651C95.8568 22.676 96.2636 22.602 96.6425 22.4479C97.0216 22.2938 97.3645 22.0628 97.6497 21.7696C97.9349 21.4763 98.1564 21.1271 98.2998 20.744C98.4434 20.361 98.5061 19.9523 98.4838 19.5438Z" fill="#252525"/>
  <path d="M104.291 9.40652C104.291 8.93659 104.43 8.47721 104.691 8.08649C104.952 7.69576 105.323 7.39121 105.757 7.21139C106.191 7.03155 106.669 6.98449 107.13 7.07617C107.591 7.16785 108.014 7.39415 108.347 7.72644C108.679 8.05872 108.905 8.48208 108.997 8.94299C109.089 9.40388 109.041 9.88161 108.862 10.3158C108.682 10.7499 108.377 11.121 107.987 11.3821C107.596 11.6432 107.137 11.7825 106.667 11.7825C106.038 11.7763 105.438 11.524 104.993 11.0797C104.549 10.6355 104.297 10.0347 104.291 9.40652ZM104.691 12.9439H108.652V26.1439H104.685L104.691 12.9439Z" fill="#252525"/>
  <path d="M125.751 19.5438C125.796 20.4162 125.669 21.289 125.377 22.1121C125.084 22.9352 124.631 23.6922 124.045 24.3398C123.459 24.9873 122.75 25.5126 121.96 25.8854C121.17 26.2581 120.314 26.471 119.441 26.5118C118.707 26.5518 117.974 26.4281 117.294 26.1496C116.614 25.8709 116.004 25.4445 115.509 24.9012V31.4225H111.549V12.9438H115.509V14.1838C116.004 13.6409 116.614 13.2148 117.294 12.9365C117.974 12.6581 118.708 12.5345 119.441 12.5745C120.314 12.6152 121.17 12.828 121.961 13.2008C122.751 13.5736 123.459 14.0989 124.046 14.7466C124.632 15.3944 125.085 16.1517 125.377 16.975C125.67 17.7982 125.797 18.6713 125.751 19.5438ZM121.791 19.5438C121.775 18.9261 121.578 18.3266 121.223 17.8204C120.869 17.3142 120.373 16.9238 119.798 16.6982C119.222 16.4725 118.593 16.4214 117.989 16.5516C117.385 16.6816 116.833 16.9869 116.401 17.4293C115.97 17.8718 115.679 18.4316 115.564 19.0389C115.449 19.6461 115.516 20.2736 115.756 20.843C115.996 21.4125 116.399 21.8984 116.914 22.2401C117.429 22.5817 118.033 22.764 118.651 22.7638C119.075 22.7828 119.498 22.7117 119.893 22.5554C120.288 22.3993 120.646 22.1613 120.942 21.8573C121.239 21.5532 121.467 21.19 121.614 20.7913C121.76 20.3926 121.82 19.9674 121.791 19.5438Z" fill="#252525"/>
  <path d="M137.971 22.1824C137.971 25.2184 135.332 26.5118 132.481 26.5118C131.329 26.616 130.173 26.3726 129.161 25.8124C128.149 25.2524 127.329 24.4018 126.805 23.3704L130.236 21.4171C130.375 21.8938 130.673 22.3086 131.08 22.5919C131.488 22.8754 131.981 23.0104 132.476 22.9744C133.425 22.9744 133.901 22.6838 133.901 22.1571C133.901 20.7038 127.407 21.4704 127.407 16.9038C127.407 14.0251 129.836 12.5744 132.581 12.5744C133.613 12.5418 134.635 12.7866 135.54 13.2832C136.445 13.78 137.201 14.5104 137.728 15.3984L134.349 17.2198C134.201 16.874 133.955 16.5795 133.64 16.373C133.325 16.1664 132.957 16.0571 132.581 16.0584C131.895 16.0584 131.472 16.3251 131.472 16.7971C131.477 18.3024 137.971 17.2984 137.971 22.1824Z" fill="#252525"/>
  <path d="M152.436 12.9438V26.1438H148.476V24.9025C148.018 25.4502 147.438 25.8818 146.782 26.1618C146.126 26.4418 145.414 26.5622 144.702 26.5132C142.036 26.5132 139.769 24.6132 139.769 21.0465V12.9438H143.729V20.4665C143.696 20.7809 143.732 21.0988 143.834 21.3978C143.936 21.697 144.102 21.9704 144.321 22.1988C144.54 22.4272 144.805 22.6052 145.1 22.7205C145.393 22.8358 145.709 22.8857 146.025 22.8665C147.477 22.8665 148.48 22.0225 148.48 20.1478V12.9478L152.436 12.9438Z" fill="#252525"/>
  <path d="M175.142 18.0385V26.1425H171.182V18.3812C171.182 17.0612 170.549 16.2172 169.282 16.2172C167.962 16.2172 167.222 17.1412 167.222 18.6985V26.1425H163.264V18.3812C163.264 17.0612 162.63 16.2172 161.362 16.2172C160.042 16.2172 159.304 17.1412 159.304 18.6985V26.1425H155.344V12.9425H159.304V14.1558C159.714 13.6176 160.253 13.1906 160.87 12.9142C161.489 12.6377 162.166 12.5205 162.841 12.5732C163.518 12.54 164.193 12.683 164.8 12.9882C165.405 13.2933 165.921 13.7504 166.298 14.3145C166.737 13.7242 167.318 13.2549 167.988 12.9504C168.657 12.6458 169.393 12.5161 170.126 12.5732C173.157 12.5745 175.142 14.7385 175.142 18.0385Z" fill="#252525"/>
  <path d="M178.492 12.8624C180.115 12.8624 181.431 11.5467 181.431 9.92377C181.431 8.30079 180.115 6.98511 178.492 6.98511C176.869 6.98511 175.553 8.30079 175.553 9.92377C175.553 11.5467 176.869 12.8624 178.492 12.8624Z" fill="#252525"/>
</svg>