<svg xmlns="http://www.w3.org/2000/svg" width="146" height="34" viewBox="0 0 146 34" fill="none">
  <path d="M41.7207 10.4403H45.3893V25.2975H41.7207V10.4403ZM46.8521 19.7089C46.8521 16.0289 49.1378 13.8232 52.5664 13.8232C55.995 13.8232 58.2807 16.0289 58.2807 19.7089C58.2807 23.3889 56.075 25.6175 52.5664 25.6175C49.0578 25.6175 46.8521 23.4689 46.8521 19.7089ZM54.6464 19.7089C54.6464 17.6861 53.8578 16.4975 52.6007 16.4975C51.3436 16.4975 50.5664 17.6404 50.5664 19.7089C50.5664 21.7775 51.3436 22.9089 52.6007 22.9089C53.8578 22.9089 54.6693 21.7775 54.6693 19.7203L54.6464 19.7089ZM59.7436 26.0632H63.2864C63.4477 26.4446 63.7294 26.7629 64.0885 26.9692C64.4476 27.1756 64.8642 27.2587 65.275 27.2061C66.6807 27.2061 67.4121 26.4518 67.4121 25.3318V23.2746H67.4236C67.1208 23.9152 66.6312 24.449 66.0193 24.8061C65.4073 25.1631 64.7016 25.3264 63.995 25.2746C61.3093 25.2746 59.5264 23.2289 59.5264 19.7089C59.5264 16.1889 61.2293 13.9946 64.0978 13.9946C64.8225 13.9559 65.5415 14.1427 66.1554 14.5296C66.7695 14.9165 67.2485 15.4842 67.5264 16.1546H67.4236V14.0861H71.0578V25.2175C71.0578 27.9032 68.6807 29.5832 65.1836 29.5832C62.0064 29.5718 59.9721 28.1203 59.7664 26.0746L59.7436 26.0632ZM67.4236 19.7089C67.4236 17.9146 66.6007 16.7832 65.2978 16.7832C63.995 16.7832 63.195 17.9261 63.195 19.7089C63.195 21.4918 63.9836 22.5432 65.2978 22.5432C66.6121 22.5432 67.4236 21.5718 67.4236 19.7089ZM72.5093 19.7089C72.5093 16.0289 74.795 13.8232 78.2236 13.8232C81.6521 13.8232 83.9378 16.0289 83.9378 19.7089C83.9378 23.3889 81.7207 25.6175 78.2236 25.6175C74.7264 25.6175 72.5321 23.4689 72.5321 19.7089H72.5093ZM80.3036 19.7089C80.3036 17.6861 79.5036 16.4975 78.2579 16.4975C77.0121 16.4975 76.2236 17.6404 76.2236 19.7089C76.2236 21.7775 77.0007 22.9089 78.2579 22.9089C79.515 22.9089 80.3264 21.7775 80.3264 19.7203L80.3036 19.7089ZM85.4236 11.3775C85.4076 11.0038 85.5038 10.6338 85.6998 10.3153C85.8958 9.99669 86.1827 9.74412 86.5235 9.58995C86.8643 9.43566 87.2433 9.38698 87.612 9.45006C87.9807 9.51303 88.3221 9.68492 88.5922 9.94355C88.8624 10.2023 89.049 10.5358 89.1281 10.9014C89.2071 11.267 89.175 11.6479 89.0358 11.995C88.8966 12.3422 88.6567 12.6398 88.347 12.8495C88.0373 13.0592 87.6719 13.1714 87.2978 13.1718C87.0589 13.1778 86.8209 13.1363 86.5981 13.0498C86.3752 12.9632 86.1717 12.8331 85.9994 12.6673C85.8272 12.5015 85.6896 12.3031 85.5948 12.0835C85.4998 11.8641 85.4494 11.628 85.4464 11.3889L85.4236 11.3775ZM85.4236 14.0746H89.1379V25.3432H85.4807L85.4236 14.0746ZM102.498 19.7089C102.498 23.3775 100.852 25.5032 98.0521 25.5032C97.3353 25.5474 96.6222 25.3705 96.009 24.9966C95.3959 24.6225 94.9124 24.0694 94.6236 23.4118H94.555V28.9661H90.8864V14.1089H94.5321V16.1203H94.6007C94.8796 15.4498 95.3584 14.8815 95.9719 14.4929C96.5855 14.1043 97.3039 13.9144 98.0293 13.9489C100.909 13.9261 102.566 16.0403 102.566 19.7203L102.498 19.7089ZM98.7607 19.7089C98.7607 17.9261 97.9264 16.7718 96.635 16.7718C95.3436 16.7718 94.5321 17.9146 94.5207 19.7089C94.5093 21.5032 95.3436 22.6346 96.635 22.6346C97.9264 22.6346 98.8293 21.5718 98.8293 19.7203L98.7607 19.7089ZM108.761 13.8118C111.835 13.8118 113.744 15.2632 113.766 17.5946H110.418C110.418 16.7832 109.744 16.2804 108.738 16.2804C107.732 16.2804 107.252 16.6689 107.252 17.2518C107.252 17.8346 107.675 18.0175 108.521 18.1889L110.875 18.6689C113.161 19.1489 114.075 20.0632 114.075 21.7661C114.075 24.0518 111.961 25.6061 108.818 25.6061C105.675 25.6061 103.629 24.0975 103.481 21.8004H107.035C107.138 22.6346 107.801 23.1261 108.875 23.1261C109.949 23.1261 110.452 22.7832 110.452 22.1775C110.452 21.5718 110.109 21.4689 109.229 21.2861L107.104 20.8404C104.898 20.3718 103.744 19.2175 103.744 17.4918C103.812 15.2518 105.732 13.8232 108.829 13.8232L108.761 13.8118ZM126.361 25.3318H122.806V23.2175H122.738C122.539 23.9228 122.106 24.5391 121.509 24.9649C120.913 25.3909 120.189 25.6008 119.458 25.5603C118.906 25.5783 118.355 25.4793 117.844 25.2697C117.333 25.0602 116.872 24.7449 116.491 24.3446C116.109 23.9441 115.818 23.4677 115.634 22.9465C115.45 22.4254 115.378 21.8711 115.424 21.3203V14.0861H119.092V20.5318C119.092 21.8575 119.789 22.5775 120.932 22.5775C121.201 22.5754 121.465 22.5159 121.708 22.403C121.952 22.29 122.168 22.1261 122.341 21.9224C122.516 21.7188 122.645 21.48 122.72 21.2224C122.793 20.9647 122.811 20.6942 122.772 20.4289V14.0861H126.429L126.361 25.3318ZM128.132 14.0746H131.698V16.2461H131.778C131.974 15.5504 132.397 14.9398 132.978 14.5096C133.56 14.0795 134.267 13.8542 134.989 13.8689C135.715 13.8058 136.438 14.0157 137.017 14.4574C137.596 14.8991 137.989 15.541 138.121 16.2575H138.281C138.509 15.5371 138.969 14.9125 139.589 14.4806C140.209 14.0486 140.955 13.8336 141.709 13.8689C142.211 13.8498 142.712 13.9369 143.177 14.1245C143.643 14.3119 144.064 14.5957 144.412 14.9571C144.761 15.3185 145.028 15.7495 145.198 16.2217C145.37 16.694 145.438 17.1968 145.401 17.6975V25.3432H141.709V18.6346C141.709 17.4918 141.172 16.8518 140.132 16.8518C139.901 16.848 139.673 16.8942 139.461 16.987C139.25 17.0799 139.062 17.2174 138.909 17.3899C138.756 17.5626 138.642 17.7662 138.574 17.987C138.508 18.2078 138.49 18.4403 138.521 18.6689V25.3432H135.024V18.6003C135.024 17.4575 134.464 16.8518 133.458 16.8518C133.225 16.8499 132.994 16.8979 132.781 16.9926C132.568 17.0873 132.378 17.2264 132.222 17.4007C132.068 17.575 131.953 17.7803 131.884 18.003C131.814 18.2257 131.794 18.4606 131.824 18.6918V25.3432H128.155L128.132 14.0746Z" fill="#252525"/>
  <path d="M34.4636 11.4117C34.4637 9.1371 33.7769 6.91545 32.493 5.03781C31.2091 3.16016 29.388 1.71405 27.2683 0.888903C25.1486 0.0637486 22.8291 -0.101966 20.6137 0.413452C18.3981 0.928869 16.39 2.10139 14.8522 3.77744H0.589355V33.8803H30.7036V19.8117C31.8856 18.7546 32.8314 17.4601 33.4793 16.0126C34.1272 14.5652 34.4626 12.9976 34.4636 11.4117ZM28.6693 11.4117C28.6716 12.5017 28.3505 13.5678 27.7466 14.4753C27.1426 15.3826 26.2832 16.0905 25.2768 16.5091C24.2704 16.9278 23.1625 17.0386 22.0931 16.8273C21.0238 16.6161 20.0412 16.0923 19.2697 15.3224C18.4981 14.5524 17.9724 13.5709 17.7589 12.502C17.5454 11.4332 17.6539 10.325 18.0705 9.31778C18.487 8.31054 19.1931 7.44954 20.0992 6.84375C21.0053 6.23795 22.0708 5.91459 23.1608 5.91458C24.6197 5.91458 26.0192 6.49338 27.0518 7.52397C28.0846 8.55455 28.6664 9.95275 28.6693 11.4117ZM24.9093 28.086H6.38364V9.57173H12.0293C11.9203 10.1792 11.8629 10.7947 11.8579 11.4117C11.861 14.4085 13.0528 17.2817 15.1718 19.4008C17.2908 21.5197 20.164 22.7116 23.1608 22.7146C23.7467 22.7115 24.3314 22.6618 24.9093 22.566V28.086Z" fill="#252525"/>
</svg>