<svg xmlns="http://www.w3.org/2000/svg" width="150" height="36" viewBox="0 0 150 36" fill="none">
<path fill-rule="evenodd" clip-rule="evenodd" d="M19.5637 0.177404L19.5422 0.140015H10.6011L0.00878906 18.2983L7.27983 31.0205L7.28876 31.0051L10.0375 35.7661L31.0591 35.8601L38.4414 23.2019H38.3923L41.1194 18.4785L30.6901 0.226215L19.5637 0.177404ZM26.4802 12.2867H26.536L21.2801 3.15841L28.9602 3.19209L37.6904 18.4708L34.9578 23.2039L27.7967 23.2077L30.2935 18.8834L26.4802 12.2867ZM17.743 3.11341L21.3267 9.31317L16.3647 9.31306L7.86969 24.0452L7.29022 25.0462L3.4423 18.3134L12.309 3.11341H17.743ZM14.2973 18.8507L18.0824 12.2865L23.0457 12.2867L26.8595 18.8843L24.3622 23.2096L16.8161 23.2137L14.2973 18.8507ZM9.00438 28.0297L10.4444 25.5325L12.5858 21.8335L15.0997 26.1881L22.6447 26.1839L22.6325 26.2051L33.2405 26.2176L29.3555 32.8791L11.7586 32.8003L9.00438 28.0297Z" fill="#252525"/>
<path d="M95.2734 11.0211C96.2916 11.0211 97.1188 10.1938 97.1188 9.15443C97.1188 8.11502 96.2916 7.30896 95.2734 7.30896C94.2341 7.30896 93.4067 8.11502 93.4067 9.15443C93.4067 10.1938 94.2341 11.0211 95.2734 11.0211ZM93.6188 23.2816H96.9067V12.6756H93.6188V23.2816Z" fill="#252525"/>
<path d="M98.8208 28.3725H102.045V22.2209C102.66 23.0271 104.06 23.5785 105.524 23.5785C108.684 23.5785 110.594 21.1604 110.509 17.8088C110.424 14.3936 108.451 12.3361 105.503 12.3361C103.997 12.3361 102.575 12.9936 101.981 13.9694L101.812 12.6755H98.8208V28.3725ZM102.109 17.9785C102.109 16.3876 103.169 15.3271 104.697 15.3271C106.245 15.3271 107.221 16.4088 107.221 17.9785C107.221 19.5482 106.245 20.6301 104.697 20.6301C103.169 20.6301 102.109 19.5694 102.109 17.9785Z" fill="#252525"/>
<path d="M110.857 19.9301C110.941 22.0725 112.639 23.5573 115.311 23.5573C117.878 23.5573 119.66 22.1997 119.66 20.0148C119.66 18.4452 118.727 17.4058 116.987 16.9815L115.099 16.5148C114.42 16.3452 113.996 16.1755 113.996 15.6239C113.996 15.0725 114.441 14.7118 115.099 14.7118C115.841 14.7118 116.329 15.1997 116.308 15.9209H119.257C119.172 13.7148 117.496 12.3361 115.162 12.3361C112.808 12.3361 111.048 13.7361 111.048 15.8573C111.048 17.2785 111.832 18.4452 113.932 18.9967L115.799 19.4846C116.35 19.6331 116.584 19.8876 116.584 20.2482C116.584 20.7785 116.096 21.1179 115.269 21.1179C114.315 21.1179 113.806 20.6725 113.806 19.9301H110.857Z" fill="#252525"/>
<path d="M124.66 23.5574C125.954 23.5574 127.248 22.9635 127.906 22.0939L128.118 23.2817H131.193V12.6757H127.927V18.1908C127.927 19.7817 127.46 20.6514 125.954 20.6514C124.787 20.6514 124.024 20.1211 124.024 18.1483V12.6757H120.757V19.3362C120.757 21.8605 122.157 23.5574 124.66 23.5574Z" fill="#252525"/>
<path d="M136.374 23.2815V17.4906C136.374 15.7088 137.328 15.1997 138.261 15.1997C139.301 15.1997 139.98 15.836 139.98 17.1513V23.2815H143.204V17.4906C143.204 15.6876 144.137 15.1785 145.07 15.1785C146.11 15.1785 146.81 15.8148 146.81 17.1513V23.2815H149.991V16.3452C149.991 13.9269 148.719 12.3148 145.983 12.3148C144.456 12.3148 143.204 13.0573 142.653 14.2027C142.016 13.0573 140.914 12.3148 139.153 12.3148C137.986 12.3148 136.904 12.8452 136.268 13.6936L136.14 12.6755H133.086V23.2815H136.374Z" fill="#252525"/>
<path d="M50.4715 7.5863H46.9927V23.2833H56.623V20.2075H50.4715V7.5863Z" fill="#252525"/>
<path d="M56.9556 17.9591C56.9556 21.3106 59.2041 23.5379 62.598 23.5379C65.9708 23.5379 68.2192 21.3106 68.2192 17.9591C68.2192 14.6076 65.9708 12.359 62.598 12.359C59.2041 12.359 56.9556 14.6076 56.9556 17.9591ZM60.2435 17.9379C60.2435 16.3469 61.1768 15.2863 62.598 15.2863C63.998 15.2863 64.9313 16.3469 64.9313 17.9379C64.9313 19.55 63.998 20.6106 62.598 20.6106C61.1768 20.6106 60.2435 19.55 60.2435 17.9379Z" fill="#252525"/>
<path d="M68.7445 17.7892C68.7445 20.9923 70.8234 23.1559 73.7718 23.1559C75.193 23.1559 76.4234 22.6469 77.0385 21.8195V23.2832C77.0385 24.7469 76.1264 25.7225 74.5143 25.7225C73.0718 25.7225 72.0748 25.0438 72.0111 23.8346H68.7021C68.999 26.7408 71.2476 28.6923 74.3234 28.6923C77.9506 28.6923 80.2415 26.3377 80.2415 22.6044V12.6771H77.293L77.1234 13.759C76.5294 12.8892 75.2779 12.3165 73.8355 12.3165C70.8657 12.3165 68.7445 14.5438 68.7445 17.7892ZM72.0536 17.7044C72.0536 16.1771 73.0718 15.159 74.3657 15.159C75.8718 15.159 76.9748 16.1559 76.9748 17.7044C76.9748 19.2529 75.893 20.3134 74.3869 20.3134C73.093 20.3134 72.0536 19.2529 72.0536 17.7044Z" fill="#252525"/>
<path d="M81.1938 17.9591C81.1938 21.3106 83.4423 23.5379 86.8363 23.5379C90.209 23.5379 92.4575 21.3106 92.4575 17.9591C92.4575 14.6076 90.209 12.359 86.8363 12.359C83.4423 12.359 81.1938 14.6076 81.1938 17.9591ZM84.4817 17.9379C84.4817 16.3469 85.4151 15.2863 86.8363 15.2863C88.2363 15.2863 89.1696 16.3469 89.1696 17.9379C89.1696 19.55 88.2363 20.6106 86.8363 20.6106C85.4151 20.6106 84.4817 19.55 84.4817 17.9379Z" fill="#252525"/>
</svg>