<svg xmlns="http://www.w3.org/2000/svg" width="85" height="40" viewBox="0 0 85 40" fill="none">
  <path d="M0.195801 24.0146H2.71395V36.3619H0.195801V24.0146Z" fill="#252525"/>
  <path d="M4.17452 32.1313C4.17286 31.2445 4.43432 30.377 4.92583 29.6388C5.41734 28.9006 6.1168 28.3248 6.93569 27.9842C7.75454 27.6437 8.65605 27.5537 9.52609 27.7257C10.3961 27.8977 11.1956 28.324 11.8232 28.9505C12.451 29.577 12.8787 30.3757 13.0523 31.2454C13.226 32.1151 13.1377 33.0167 12.7987 33.8363C12.4597 34.6558 11.8852 35.3563 11.1479 35.8492C10.4106 36.3422 9.54369 36.6052 8.65685 36.6052C8.06698 36.6119 7.48183 36.5009 6.93552 36.2785C6.38922 36.0562 5.89279 35.727 5.47533 35.3103C5.05788 34.8937 4.72779 34.3979 4.50442 33.8519C4.28105 33.3061 4.16889 32.7211 4.17452 32.1313ZM10.6041 32.1313C10.5943 31.7485 10.4717 31.377 10.2518 31.0635C10.0319 30.7499 9.7244 30.5082 9.36778 30.3685C9.01116 30.2287 8.62129 30.1974 8.24698 30.2781C7.87258 30.3588 7.53036 30.5481 7.26298 30.8223C6.99569 31.0966 6.81516 31.4436 6.744 31.8199C6.67284 32.1962 6.71425 32.5852 6.86298 32.9381C7.01178 33.291 7.26129 33.5922 7.58031 33.804C7.89943 34.0159 8.27382 34.1289 8.65685 34.129C8.9188 34.1364 9.17951 34.0894 9.42244 33.9909C9.66538 33.8924 9.88529 33.7447 10.0683 33.5569C10.2512 33.3692 10.3934 33.1456 10.4856 32.9003C10.5778 32.6549 10.6182 32.3931 10.6041 32.1313Z" fill="#252525"/>
  <path d="M23.2616 27.9009V35.9421C23.2616 38.7876 21.0372 39.988 18.7877 39.988C17.9967 40.0468 17.2047 39.8868 16.4985 39.5256C15.7923 39.1643 15.1991 38.6157 14.7839 37.9399L16.9495 36.6892C17.1213 37.0355 17.3933 37.3224 17.73 37.5124C18.0667 37.7025 18.4527 37.7871 18.8381 37.7552C19.0917 37.7975 19.3516 37.781 19.5978 37.7068C19.844 37.6328 20.0699 37.5032 20.258 37.328C20.4461 37.1528 20.5916 36.9367 20.683 36.6964C20.7745 36.4562 20.8095 36.1981 20.7854 35.9421V35.1615C20.4894 35.5258 20.1116 35.8151 19.6829 36.0061C19.2542 36.1971 18.7865 36.2845 18.3177 36.2611C17.1779 36.2611 16.0848 35.8083 15.2788 35.0024C14.4728 34.1964 14.02 33.1033 14.02 31.9635C14.02 30.8236 14.4728 29.7306 15.2788 28.9246C16.0848 28.1187 17.1779 27.6659 18.3177 27.6659C18.7862 27.6444 19.2533 27.7327 19.6817 27.9236C20.1101 28.1145 20.4881 28.4028 20.7854 28.7654V27.926L23.2616 27.9009ZM20.7854 31.9635C20.8022 31.5553 20.6964 31.1514 20.4819 30.8036C20.2672 30.456 19.9535 30.1804 19.5811 30.0125C19.2086 29.8445 18.7944 29.7918 18.3917 29.8611C17.9891 29.9304 17.6164 30.1186 17.3215 30.4013C17.0266 30.6842 16.823 31.0487 16.737 31.4481C16.6509 31.8475 16.6862 32.2635 16.8385 32.6427C16.9908 33.0219 17.2529 33.3467 17.5913 33.5757C17.9297 33.8048 18.3288 33.9273 18.7373 33.9276C19.0041 33.9465 19.2717 33.9093 19.5231 33.8184C19.7746 33.7274 20.0042 33.585 20.1972 33.3999C20.39 33.2148 20.5421 32.9914 20.6435 32.744C20.7448 32.4966 20.7932 32.2307 20.7854 31.9635Z" fill="#252525"/>
  <path d="M24.7141 32.1313C24.7124 31.2445 24.9739 30.377 25.4654 29.6388C25.9569 28.9006 26.6564 28.3248 27.4752 27.9842C28.2941 27.6437 29.1956 27.5537 30.0656 27.7257C30.9357 27.8977 31.7351 28.324 32.3629 28.9505C32.9905 29.577 33.4182 30.3757 33.5919 31.2454C33.7655 32.1151 33.6773 33.0167 33.3382 33.8363C32.9992 34.6558 32.4247 35.3563 31.6875 35.8492C30.9501 36.3422 30.0832 36.6052 29.1964 36.6052C28.6066 36.6119 28.0214 36.5009 27.475 36.2785C26.9287 36.0562 26.4323 35.727 26.0149 35.3103C25.5974 34.8937 25.2673 34.3979 25.0439 33.8519C24.8206 33.3061 24.7084 32.7211 24.7141 32.1313ZM31.1437 32.1313C31.1338 31.7485 31.0112 31.377 30.7913 31.0635C30.5714 30.7499 30.2639 30.5082 29.9073 30.3685C29.5508 30.2287 29.1609 30.1974 28.7865 30.2781C28.4121 30.3588 28.0699 30.5481 27.8025 30.8223C27.5352 31.0966 27.3547 31.4436 27.2835 31.8199C27.2124 32.1962 27.2538 32.5852 27.4025 32.9381C27.5513 33.291 27.8008 33.5922 28.1198 33.804C28.439 34.0159 28.8134 34.1289 29.1964 34.129C29.457 34.134 29.7158 34.0853 29.9568 33.9857C30.1977 33.8862 30.4156 33.7381 30.5967 33.5506C30.7779 33.3632 30.9184 33.1404 31.0097 32.8962C31.1009 32.652 31.1408 32.3916 31.1269 32.1313H31.1437Z" fill="#252525"/>
  <path d="M34.8452 25.6345C34.8452 25.3323 34.9348 25.037 35.1026 24.7858C35.2705 24.5346 35.5091 24.3387 35.7882 24.2231C36.0674 24.1075 36.3745 24.0772 36.6709 24.1362C36.9673 24.1951 37.2394 24.3406 37.4531 24.5542C37.6668 24.7679 37.8122 25.0401 37.8712 25.3364C37.9302 25.6328 37.8999 25.94 37.7843 26.2191C37.6687 26.4982 37.4729 26.7369 37.2217 26.9047C36.9704 27.0725 36.6751 27.1621 36.3729 27.1621C35.9684 27.16 35.5811 26.9983 35.2951 26.7122C35.009 26.4263 34.8474 26.039 34.8452 25.6345ZM35.1054 27.9008H37.6235V36.3617H35.1054V27.9008Z" fill="#252525"/>
  <path d="M48.6025 32.1317C48.633 32.6909 48.5526 33.2508 48.3659 33.7789C48.1792 34.3069 47.8899 34.7929 47.5147 35.2087C47.1394 35.6245 46.6856 35.962 46.1794 36.2018C45.6731 36.4415 45.1245 36.5788 44.5651 36.6056C44.0954 36.6281 43.6264 36.5474 43.1914 36.369C42.7563 36.1906 42.3656 35.9189 42.0469 35.5732V39.77H39.5288V27.9012H42.0469V28.6986C42.3656 28.3528 42.7563 28.0812 43.1914 27.9028C43.6264 27.7244 44.0954 27.6437 44.5651 27.6662C45.1238 27.693 45.6717 27.83 46.1773 28.0692C46.683 28.3085 47.1364 28.6452 47.5115 29.0601C47.8867 29.475 48.1762 29.9599 48.3634 30.487C48.5507 31.0142 48.6319 31.5731 48.6025 32.1317ZM46.0843 32.1317C46.0744 31.7377 45.9491 31.3553 45.7239 31.0318C45.4987 30.7085 45.1837 30.4581 44.8178 30.3119C44.4518 30.1657 44.0509 30.1301 43.665 30.2094C43.2789 30.2887 42.9246 30.4796 42.646 30.7582C42.3673 31.0369 42.1765 31.3911 42.0972 31.7772C42.0179 32.1632 42.0535 32.564 42.1996 32.93C42.3459 33.2959 42.5962 33.611 42.9196 33.8361C43.2431 34.0613 43.6255 34.1866 44.0195 34.1965C44.2944 34.2141 44.5699 34.1725 44.8275 34.0747C45.085 33.9768 45.3186 33.825 45.5126 33.6294C45.7066 33.4338 45.8565 33.1989 45.9523 32.9406C46.0479 32.6823 46.0873 32.4065 46.0675 32.1317H46.0843Z" fill="#252525"/>
  <path d="M56.4426 33.8269C56.4426 35.7743 54.7639 36.6052 52.9172 36.6052C52.1795 36.6705 51.4392 36.5136 50.7914 36.1545C50.1438 35.7955 49.6183 35.2509 49.2827 34.5907L51.4819 33.3401C51.5712 33.6454 51.7623 33.911 52.0233 34.0927C52.2845 34.2744 52.5999 34.3613 52.9172 34.3389C53.53 34.3389 53.8321 34.1458 53.8321 33.8101C53.8321 32.8784 49.6352 33.3736 49.6352 30.4526C49.6352 28.6059 51.1965 27.6742 52.9927 27.6742C53.6556 27.6541 54.3118 27.8115 54.8933 28.1304C55.4748 28.4491 55.9604 28.9177 56.2999 29.4873L54.0924 30.6457C53.9949 30.424 53.8351 30.2353 53.6324 30.1027C53.4297 29.9701 53.193 29.8992 52.9508 29.8985C52.5143 29.8985 52.2457 30.0665 52.2457 30.377C52.2793 31.3423 56.4426 30.696 56.4426 33.8269Z" fill="#252525"/>
  <path d="M65.7094 27.901V36.362H63.1912V35.573C62.8983 35.9236 62.5266 36.1998 62.1064 36.3793C61.6863 36.5588 61.2296 36.6362 60.7738 36.6054C59.0951 36.6054 57.6094 35.3883 57.6094 33.0968V27.901H60.1275V32.7275C60.1054 32.9332 60.1294 33.1412 60.1976 33.3365C60.2659 33.5317 60.3767 33.7093 60.5223 33.8565C60.6677 34.0036 60.8441 34.1164 61.0386 34.1868C61.2331 34.2573 61.4409 34.2834 61.6468 34.2636C62.5702 34.2636 63.2165 33.7263 63.2165 32.5261V27.901H65.7094Z" fill="#252525"/>
  <path d="M80.264 31.1744V36.3618H77.7458V31.3927C77.7458 30.5533 77.3345 29.9993 76.5287 29.9993C75.723 29.9993 75.2025 30.5953 75.2025 31.5941V36.3618H72.6844V31.3927C72.6844 30.5533 72.2815 29.9993 71.4672 29.9993C70.6531 29.9993 70.1495 30.5953 70.1495 31.5941V36.3618H67.6313V27.9009H70.1495V28.6815C70.4127 28.3367 70.7578 28.0632 71.1537 27.8859C71.5495 27.7084 71.9833 27.6328 72.4158 27.6659C72.8501 27.6447 73.2825 27.7365 73.6708 27.9321C74.0592 28.1277 74.3902 28.4206 74.6318 28.7822C74.9127 28.4042 75.2848 28.1035 75.7135 27.9083C76.1421 27.7131 76.6132 27.6296 77.0827 27.6659C78.9966 27.6659 80.264 29.0592 80.264 31.1744Z" fill="#252525"/>
  <path d="M82.413 27.8509C83.4514 27.8509 84.2931 27.009 84.2931 25.9706C84.2931 24.9322 83.4514 24.0905 82.413 24.0905C81.3746 24.0905 80.5327 24.9322 80.5327 25.9706C80.5327 27.009 81.3746 27.8509 82.413 27.8509Z" fill="#252525"/>
  <path d="M28.6928 17.6102C33.5557 17.6102 37.4979 13.668 37.4979 8.80507C37.4979 3.94218 33.5557 0 28.6928 0C23.8299 0 19.8877 3.94218 19.8877 8.80507C19.8877 13.668 23.8299 17.6102 28.6928 17.6102Z" fill="#252525"/>
  <path d="M48.3759 17.6102C53.2389 17.6102 57.181 13.668 57.181 8.80507C57.181 3.94218 53.2389 0 48.3759 0C43.513 0 39.5708 3.94218 39.5708 8.80507C39.5708 13.668 43.513 17.6102 48.3759 17.6102Z" fill="#252525"/>
  <path d="M17.8142 0H0.212402V17.6018H17.8142V0Z" fill="#252525"/>
</svg>