<svg xmlns="http://www.w3.org/2000/svg" width="153" height="36" viewBox="0 0 153 36" fill="none">
  <path d="M0.91748 35.1H35.1175V0.900024H0.91748V35.1ZM28.5348 14.7094H21.3082V7.48269H28.5348V14.7094ZM7.49881 7.48269H14.7295V21.2907H28.5348V28.5174H7.49881V7.48269ZM57.3882 0.900024C54.006 0.900024 50.6999 1.90293 47.8879 3.7819C45.0758 5.66088 42.884 8.33153 41.5898 11.4562C40.2955 14.5808 39.957 18.019 40.6167 21.336C41.2766 24.6531 42.9051 27.7 45.2966 30.0915C47.688 32.4831 50.735 34.1116 54.052 34.7715C57.3692 35.4312 60.8074 35.0927 63.932 33.7984C67.0567 32.5042 69.7272 30.3124 71.6063 27.5003C73.4852 24.6882 74.4882 21.382 74.4882 18C74.4828 13.4664 72.6795 9.12008 69.4738 5.91436C66.268 2.70862 61.9218 0.905318 57.3882 0.900024ZM57.3882 28.5174C55.308 28.5174 53.2746 27.9006 51.545 26.7448C49.8155 25.5892 48.4674 23.9467 47.6714 22.0248C46.8754 20.1031 46.6671 17.9884 47.0728 15.9482C47.4787 13.908 48.4804 12.034 49.9512 10.5631C51.4222 9.09228 53.2962 8.0906 55.3363 7.68478C57.3764 7.27897 59.4911 7.48725 61.413 8.28328C63.3347 9.0793 64.9774 10.4273 66.133 12.157C67.2887 13.8864 67.9055 15.9199 67.9055 18C67.9012 20.7882 66.7918 23.4608 64.8203 25.4323C62.8488 27.4038 60.1762 28.5131 57.3882 28.5174ZM135.68 0.900024C132.298 0.899771 128.992 1.90244 126.18 3.78125C123.367 5.66006 121.175 8.33063 119.881 11.4552C118.586 14.5798 118.248 18.0182 118.907 21.3352C119.567 24.6524 121.195 27.6995 123.587 30.0911C125.978 32.4827 129.025 34.1115 132.343 34.7714C135.659 35.4312 139.098 35.0927 142.223 33.7986C145.347 32.5043 148.018 30.3126 149.896 27.5004C151.776 24.6883 152.779 21.3822 152.779 18C152.774 13.4667 150.971 9.1205 147.766 5.91482C144.56 2.70913 140.214 0.905678 135.68 0.900024ZM135.68 28.5174C133.6 28.5176 131.567 27.901 129.837 26.7455C128.107 25.59 126.759 23.9475 125.962 22.0258C125.166 20.104 124.958 17.9892 125.363 15.949C125.769 13.9088 126.771 12.0347 128.242 10.5636C129.712 9.09261 131.587 8.0908 133.627 7.68488C135.667 7.27896 137.782 7.48716 139.703 8.28316C141.626 9.07914 143.268 10.4272 144.424 12.1568C145.579 13.8864 146.196 15.9199 146.196 18C146.192 20.7879 145.083 23.4603 143.111 25.4318C141.14 27.4032 138.468 28.5128 135.68 28.5174ZM96.5335 0.900024C93.1514 0.900024 89.8452 1.90293 87.0332 3.7819C84.2211 5.66088 82.0294 8.33153 80.7351 11.4562C79.4408 14.5808 79.1023 18.019 79.762 21.336C80.4219 24.6531 82.0504 27.7 84.4419 30.0915C86.8334 32.4831 89.8803 34.1116 93.1974 34.7715C96.5145 35.4312 99.9527 35.0927 103.077 33.7984C106.202 32.5042 108.873 30.3124 110.752 27.5003C112.631 24.6882 113.634 21.382 113.634 18C113.628 13.4664 111.825 9.12008 108.619 5.91436C105.413 2.70862 101.067 0.905318 96.5335 0.900024ZM96.5335 28.5174C94.5954 28.5183 92.6948 27.9838 91.0414 26.9727C89.388 25.9616 88.046 24.5135 87.1638 22.7879C86.2816 21.0623 85.8932 19.1264 86.0418 17.1942C86.1903 15.2618 86.8698 13.408 88.0054 11.8375C89.141 10.267 90.6884 9.04084 92.4768 8.2943C94.2654 7.54776 96.2254 7.30992 98.1404 7.60701C100.056 7.90412 101.851 8.7246 103.33 9.97792C104.808 11.2312 105.911 12.8687 106.518 14.7094H96.5335V21.2907H106.518C105.823 23.3911 104.485 25.2196 102.693 26.5167C100.901 27.8139 98.7458 28.5138 96.5335 28.5174Z" fill="#252525"/>
</svg>