<svg xmlns="http://www.w3.org/2000/svg" width="136" height="28" viewBox="0 0 136 28" fill="none">
  <path d="M43.9413 22.4541C43.2616 22.491 42.5892 22.2978 42.0328 21.9055C41.8003 21.7332 41.6132 21.5068 41.4877 21.246C41.3623 20.9851 41.3023 20.6977 41.3128 20.4084V9.81412C41.3073 9.76932 41.312 9.72372 41.3267 9.68098C41.3413 9.63823 41.3656 9.59949 41.3976 9.56749C41.4296 9.53549 41.4683 9.51126 41.5111 9.49663C41.5538 9.48189 41.5994 9.4772 41.6442 9.48269H43.5642C43.7813 9.48269 43.8842 9.59698 43.8842 9.81412V19.5855C43.8842 20.0198 44.0785 20.237 44.4785 20.237C44.6481 20.2439 44.8177 20.2247 44.9813 20.1798C45.2099 20.1798 45.3356 20.2484 45.3471 20.4541L45.5185 21.8827C45.5267 21.9244 45.5259 21.9673 45.5162 22.0086C45.5065 22.0499 45.488 22.0887 45.4619 22.1222C45.436 22.1558 45.4031 22.1835 45.3656 22.2033C45.328 22.223 45.2866 22.2346 45.2442 22.237C44.8236 22.3759 44.3842 22.4492 43.9413 22.4541Z" fill="#252525"/>
  <path d="M54.7413 21.2312C53.7767 22.0284 52.5642 22.4644 51.3128 22.4644C50.0613 22.4644 48.849 22.0284 47.8842 21.2312C47.0363 20.3752 46.5605 19.219 46.5605 18.0141C46.5605 16.8092 47.0363 15.653 47.8842 14.797C48.8508 14.0039 50.0625 13.5706 51.3128 13.5706C52.5631 13.5706 53.7747 14.0039 54.7413 14.797C55.5698 15.6608 56.0323 16.8115 56.0323 18.0084C56.0323 19.2053 55.5698 20.3559 54.7413 21.2198V21.2312ZM49.6899 19.7227C50.1377 20.1283 50.7201 20.3528 51.3242 20.3528C51.9283 20.3528 52.5108 20.1283 52.9585 19.7227C53.3637 19.2568 53.5868 18.6602 53.5868 18.0427C53.5868 17.4253 53.3637 16.8286 52.9585 16.3627C52.5108 15.9572 51.9283 15.7325 51.3242 15.7325C50.7201 15.7325 50.1377 15.9572 49.6899 16.3627C49.2848 16.8286 49.0616 17.4253 49.0616 18.0427C49.0616 18.6602 49.2848 19.2568 49.6899 19.7227Z" fill="#252525"/>
  <path d="M66.6045 13.8597C66.8216 13.8597 66.9245 13.974 66.9245 14.1911V22.3854C66.9445 22.9385 66.8409 23.4891 66.6215 23.9971C66.402 24.5052 66.0722 24.958 65.6559 25.3225C64.7318 26.1105 63.5434 26.5189 62.3302 26.4654C61.2344 26.5039 60.1531 26.2047 59.233 25.6083C58.8401 25.3503 58.5045 25.0142 58.247 24.6211C57.9894 24.2278 57.8154 23.7859 57.7359 23.3225C57.7359 23.094 57.7359 22.9911 58.0445 22.9911H59.9645C60.0459 22.9939 60.125 23.0203 60.1919 23.0669C60.2589 23.1135 60.3109 23.1784 60.3416 23.254C60.4662 23.6011 60.7144 23.8901 61.0387 24.0654C61.4341 24.2694 61.8741 24.3716 62.3187 24.3625C62.5871 24.3773 62.8557 24.3383 63.1088 24.248C63.3619 24.1579 63.5945 24.018 63.793 23.8368C63.9744 23.6473 64.1154 23.423 64.2078 23.1775C64.3001 22.932 64.3417 22.6703 64.3302 22.4083V21.6883C63.6427 22.1939 62.8061 22.4553 61.953 22.4311C61.356 22.4528 60.7608 22.3537 60.203 22.1397C59.6453 21.9255 59.1366 21.6011 58.7073 21.1854C57.8834 20.3331 57.4229 19.1939 57.4229 18.0083C57.4229 16.8228 57.8834 15.6836 58.7073 14.8311C59.1386 14.4192 59.648 14.0979 60.2054 13.8859C60.7629 13.6739 61.357 13.5756 61.953 13.5968C62.8307 13.5736 63.6899 13.852 64.3873 14.3854V14.2025C64.3821 14.1588 64.3866 14.1143 64.4007 14.0725C64.4147 14.0308 64.4379 13.9926 64.4686 13.9608C64.4992 13.9291 64.5366 13.9046 64.5778 13.8891C64.6192 13.8735 64.6634 13.8675 64.7073 13.8711L66.6045 13.8597ZM62.1702 20.3968C62.4646 20.406 62.7575 20.3503 63.028 20.2337C63.2985 20.1173 63.5402 19.9428 63.7359 19.7225C64.1159 19.2319 64.3221 18.6288 64.3221 18.0083C64.3221 17.3877 64.1159 16.7847 63.7359 16.294C63.5409 16.0768 63.3007 15.9048 63.0322 15.7903C62.7637 15.6758 62.4734 15.6215 62.1816 15.6311C61.8838 15.6217 61.5875 15.6772 61.3133 15.7936C61.039 15.9101 60.7933 16.0847 60.593 16.3054C60.1721 16.7748 59.9507 17.3897 59.9759 18.0197C59.9553 18.6435 60.1718 19.2519 60.5816 19.7225C60.7823 19.9427 61.0281 20.1169 61.3023 20.2333C61.5765 20.3496 61.8725 20.4054 62.1702 20.3968Z" fill="#252525"/>
  <path d="M76.7868 21.2311C75.8202 22.0241 74.6086 22.4575 73.3583 22.4575C72.108 22.4575 70.8963 22.0241 69.9297 21.2311C69.1006 20.3653 68.6377 19.2128 68.6377 18.014C68.6377 16.8152 69.1006 15.6626 69.9297 14.7968C70.8972 14.0058 72.1086 13.5737 73.3583 13.5737C74.608 13.5737 75.8193 14.0058 76.7868 14.7968C77.6153 15.6607 78.0778 16.8113 78.0778 18.0082C78.0778 19.2052 77.6153 20.3558 76.7868 21.2197V21.2311ZM71.724 19.7225C71.9431 19.931 72.2014 20.0938 72.4839 20.2017C72.7664 20.3096 73.0674 20.3605 73.3697 20.3511C73.67 20.3589 73.969 20.3074 74.2495 20.1996C74.5299 20.0917 74.7863 19.9296 75.004 19.7225C75.4026 19.2535 75.6215 18.6581 75.6215 18.0425C75.6215 17.427 75.4026 16.8316 75.004 16.3625C74.7863 16.1556 74.5299 15.9934 74.2495 15.8856C73.969 15.7777 73.67 15.7262 73.3697 15.734C73.0674 15.7247 72.7664 15.7754 72.4839 15.8833C72.2014 15.9912 71.9431 16.1542 71.724 16.3625C71.3255 16.8316 71.1066 17.427 71.1066 18.0425C71.1066 18.6581 71.3255 19.2535 71.724 19.7225Z" fill="#252525"/>
  <path d="M82.2045 11.917C81.9024 12.1814 81.5145 12.3271 81.113 12.3271C80.7116 12.3271 80.3238 12.1814 80.0216 11.917C79.8847 11.7877 79.7755 11.6318 79.7009 11.4589C79.6264 11.286 79.5879 11.0996 79.5879 10.9113C79.5879 10.7229 79.6264 10.5366 79.7009 10.3636C79.7755 10.1907 79.8847 10.0348 80.0216 9.90555C80.3269 9.64772 80.7135 9.50635 81.113 9.50635C81.5126 9.50635 81.8992 9.64772 82.2045 9.90555C82.3415 10.0348 82.4506 10.1907 82.5251 10.3636C82.5998 10.5366 82.6382 10.7229 82.6382 10.9113C82.6382 11.0996 82.5998 11.286 82.5251 11.4589C82.4506 11.6318 82.3415 11.7877 82.2045 11.917ZM82.4445 22.4541C81.7651 22.4875 81.0939 22.2946 80.5359 21.9056C80.307 21.7307 80.1231 21.5035 79.9999 21.243C79.8766 20.9826 79.8174 20.6964 79.8273 20.4084V14.1913C79.8218 14.1465 79.8265 14.1009 79.8413 14.0581C79.8559 14.0154 79.8801 13.9766 79.9121 13.9446C79.9441 13.9126 79.9829 13.8884 80.0256 13.8738C80.0684 13.859 80.1139 13.8543 80.1587 13.8598H82.0787C82.2959 13.8598 82.3988 13.9741 82.3988 14.1913V19.5855C82.3988 20.0198 82.593 20.237 82.9816 20.237C83.155 20.2433 83.3282 20.2239 83.4959 20.1798C83.7245 20.1798 83.8502 20.2484 83.8616 20.4541L84.033 21.8827C84.0413 21.9244 84.0405 21.9673 84.0307 22.0086C84.021 22.0499 84.0025 22.0887 83.9765 22.1222C83.9505 22.1558 83.9176 22.1835 83.8801 22.2033C83.8425 22.223 83.8011 22.2346 83.7587 22.237C83.3345 22.3767 82.8912 22.45 82.4445 22.4541Z" fill="#252525"/>
  <path d="M91.0955 13.5854C91.6953 13.5617 92.2936 13.6588 92.8551 13.8708C93.4166 14.0829 93.9298 14.4055 94.3641 14.8197C95.1723 15.6871 95.6217 16.8285 95.6217 18.014C95.6217 19.1994 95.1723 20.3409 94.3641 21.2082C93.9319 21.6262 93.4193 21.952 92.8575 22.1661C92.2957 22.3802 91.6963 22.4782 91.0955 22.454C90.2398 22.473 89.401 22.2122 88.707 21.7111V25.8368C88.707 26.054 88.5927 26.1568 88.3755 26.1568H86.4555C86.4118 26.165 86.3666 26.1624 86.324 26.1493C86.2815 26.136 86.2428 26.1127 86.2112 26.0812C86.1798 26.0496 86.1563 26.011 86.1432 25.9684C86.1299 25.9258 86.1274 25.8807 86.1356 25.8368V16.4654C86.149 16.3737 86.1408 16.2802 86.1118 16.1922C86.0826 16.1044 86.0333 16.0244 85.9678 15.9589C85.9023 15.8934 85.8224 15.8441 85.7344 15.815C85.6465 15.7858 85.5529 15.7777 85.4613 15.7911H85.0841C84.8327 15.7911 84.707 15.6997 84.707 15.5168V14.1682C84.701 14.0848 84.7239 14.0018 84.7718 13.9333C84.8196 13.8646 84.8895 13.8144 84.9698 13.7911C85.3652 13.6474 85.7835 13.5777 86.2041 13.5854C86.6235 13.5482 87.0445 13.6373 87.413 13.8408C87.7815 14.0445 88.0809 14.3535 88.2727 14.7282C88.6408 14.3559 89.081 14.0625 89.5664 13.866C90.0518 13.6695 90.5721 13.574 91.0955 13.5854ZM89.3127 19.7225C89.5165 19.9356 89.7613 20.105 90.0323 20.2208C90.3034 20.3366 90.5951 20.3962 90.8898 20.3962C91.1846 20.3962 91.4764 20.3366 91.7473 20.2208C92.0184 20.105 92.2632 19.9356 92.467 19.7225C92.8962 19.2438 93.1217 18.6165 93.0955 17.974C93.1255 17.331 92.8994 16.7022 92.467 16.2254C92.2632 16.0125 92.0184 15.843 91.7473 15.7272C91.4764 15.6113 91.1846 15.5517 90.8898 15.5517C90.5951 15.5517 90.3034 15.6113 90.0323 15.7272C89.7613 15.843 89.5165 16.0125 89.3127 16.2254C88.8969 16.7106 88.6805 17.3354 88.707 17.974C88.6838 18.612 88.8999 19.2357 89.3127 19.7225Z" fill="#252525"/>
  <path d="M101.016 22.4541C99.9898 22.4963 98.9726 22.2509 98.0786 21.7456C97.72 21.5296 97.4146 21.2355 97.185 20.8853C96.9556 20.5352 96.8079 20.1378 96.7529 19.7227C96.7529 19.4941 96.8329 19.3798 97.0844 19.3798H98.7644C98.8442 19.383 98.9218 19.4081 98.9884 19.4525C99.0549 19.4969 99.1079 19.5587 99.1415 19.6313C99.3815 20.2484 100.01 20.557 101.016 20.557C101.367 20.5731 101.716 20.5024 102.033 20.3513C102.142 20.3019 102.236 20.2237 102.305 20.1251C102.373 20.0265 102.414 19.911 102.422 19.7913C102.422 19.4941 102.239 19.2884 101.873 19.1513C101.439 19.0069 100.991 18.911 100.536 18.8656C99.9969 18.8045 99.4625 18.7091 98.9358 18.5798C98.4236 18.464 97.9578 18.1972 97.5986 17.8141C97.3871 17.5538 97.2314 17.2526 97.1412 16.9296C97.051 16.6065 97.0282 16.2682 97.0743 15.936C97.1205 15.6036 97.2344 15.2843 97.4092 14.998C97.5839 14.7116 97.8157 14.4643 98.0901 14.2713C98.9138 13.7466 99.8804 13.4909 100.856 13.5398C101.8 13.508 102.735 13.7416 103.553 14.2141C103.883 14.401 104.167 14.6589 104.384 14.9693C104.602 15.2797 104.747 15.6347 104.81 16.0084C104.81 16.237 104.707 16.3513 104.502 16.3513H102.81C102.739 16.3555 102.668 16.3381 102.607 16.3014C102.546 16.2648 102.497 16.2104 102.467 16.1456C102.354 15.8749 102.141 15.658 101.873 15.5398C101.57 15.3814 101.232 15.3027 100.89 15.3113C100.555 15.2931 100.221 15.36 99.9186 15.5056C99.8121 15.5467 99.7205 15.6187 99.6552 15.7124C99.5901 15.8061 99.5544 15.9172 99.5529 16.0313C99.5602 16.1876 99.6175 16.3374 99.7162 16.4588C99.815 16.5802 99.95 16.6666 100.102 16.7056C100.54 16.871 100.997 16.986 101.462 17.0484C101.996 17.1188 102.526 17.218 103.05 17.3456C103.562 17.4616 104.028 17.7282 104.387 18.1113C104.579 18.3224 104.728 18.5693 104.824 18.8381C104.92 19.1068 104.962 19.392 104.947 19.677C104.957 20.0721 104.864 20.4629 104.678 20.8115C104.492 21.16 104.218 21.4542 103.884 21.6656C103.031 22.2138 102.03 22.4888 101.016 22.4541Z" fill="#252525"/>
  <path d="M117.027 21.8827C117.034 21.9233 117.032 21.9648 117.023 22.0047C117.012 22.0447 116.995 22.0821 116.97 22.1152C116.946 22.1482 116.915 22.176 116.88 22.1969C116.844 22.2178 116.806 22.2314 116.764 22.237C116.347 22.3732 115.912 22.4465 115.473 22.4541C115.039 22.4992 114.6 22.4313 114.2 22.2571C113.799 22.0829 113.45 21.8083 113.187 21.4599C112.38 22.1539 111.336 22.51 110.273 22.4541C109.779 22.4769 109.287 22.3961 108.826 22.217C108.366 22.0379 107.947 21.7644 107.599 21.4141C107.252 21.0472 106.984 20.614 106.809 20.1408C106.634 19.6675 106.557 19.1639 106.582 18.6599V14.1913C106.582 13.9742 106.684 13.8599 106.902 13.8599H108.822C109.039 13.8599 109.142 13.9742 109.142 14.1913V18.317C109.121 18.8311 109.296 19.3337 109.633 19.7227C109.801 19.901 110.006 20.0411 110.232 20.1338C110.458 20.2265 110.703 20.2695 110.947 20.2599C111.198 20.2708 111.448 20.2321 111.683 20.1457C111.919 20.0594 112.135 19.9273 112.319 19.757C112.492 19.5776 112.628 19.3643 112.716 19.1304C112.806 18.8964 112.844 18.6468 112.833 18.397V14.1913C112.833 13.9742 112.936 13.8599 113.153 13.8599H115.096C115.313 13.8599 115.416 13.9742 115.416 14.1913V19.5741C115.416 20.0199 115.61 20.237 115.987 20.237C116.164 20.2439 116.342 20.2247 116.513 20.1799C116.556 20.1677 116.602 20.1656 116.646 20.1736C116.69 20.1815 116.731 20.1993 116.768 20.2257C116.804 20.2521 116.834 20.2864 116.856 20.3259C116.876 20.3655 116.888 20.4093 116.89 20.4541L117.027 21.8827Z" fill="#252525"/>
  <path d="M135.187 21.8826C135.198 21.9235 135.199 21.9662 135.191 22.0076C135.182 22.0489 135.164 22.0879 135.139 22.1218C135.114 22.1556 135.082 22.1835 135.044 22.2034C135.008 22.2234 134.967 22.2348 134.924 22.2369C134.499 22.375 134.057 22.4483 133.61 22.454C132.93 22.4891 132.259 22.2961 131.702 21.9054C131.46 21.7381 131.265 21.514 131.131 21.2529C130.998 20.9917 130.93 20.7015 130.936 20.4083V17.7226C130.96 17.2101 130.788 16.7076 130.456 16.3169C130.296 16.1382 130.097 15.9974 129.876 15.9045C129.655 15.8117 129.416 15.7691 129.176 15.7797C128.96 15.7716 128.745 15.8126 128.546 15.8997C128.348 15.9868 128.174 16.1178 128.033 16.2826C127.731 16.6655 127.577 17.1442 127.599 17.6311V21.8483C127.599 22.0654 127.496 22.1797 127.279 22.1797H125.347C125.303 22.1853 125.257 22.1805 125.215 22.1659C125.171 22.1511 125.132 22.1269 125.1 22.0949C125.068 22.063 125.044 22.0242 125.03 21.9814C125.015 21.9387 125.01 21.8932 125.016 21.8483V17.7226C125.041 17.2157 124.882 16.7167 124.57 16.3169C124.431 16.1489 124.256 16.0137 124.058 15.9209C123.862 15.8281 123.646 15.7798 123.427 15.7797C123.194 15.7703 122.962 15.8102 122.745 15.897C122.528 15.9836 122.332 16.115 122.17 16.2826C121.843 16.6533 121.675 17.1377 121.702 17.6311V21.8483C121.707 21.8932 121.703 21.9387 121.688 21.9814C121.673 22.0242 121.649 22.063 121.617 22.0949C121.585 22.1269 121.546 22.1511 121.504 22.1659C121.46 22.1805 121.415 22.1853 121.37 22.1797H119.507C119.29 22.1797 119.187 22.0654 119.187 21.8483V16.4654C119.201 16.3738 119.193 16.2803 119.163 16.1923C119.135 16.1044 119.086 16.0244 119.019 15.9589C118.954 15.8934 118.874 15.8442 118.786 15.815C118.698 15.7859 118.604 15.7778 118.513 15.7911H118.136C117.884 15.7911 117.759 15.6997 117.759 15.5169V14.1683C117.753 14.0849 117.776 14.0019 117.824 13.9333C117.872 13.8646 117.942 13.8145 118.022 13.7911C118.417 13.6475 118.835 13.5778 119.256 13.5854C119.659 13.551 120.065 13.6315 120.425 13.8175C120.785 14.0036 121.084 14.2876 121.29 14.6369C121.675 14.2715 122.132 13.9894 122.632 13.8085C123.131 13.6276 123.663 13.5517 124.193 13.5854C124.708 13.5603 125.222 13.6569 125.692 13.8674C126.163 14.0779 126.577 14.3963 126.902 14.7969C127.28 14.3858 127.745 14.0639 128.263 13.8543C128.78 13.6449 129.338 13.5531 129.896 13.5854C130.394 13.5621 130.892 13.6425 131.359 13.8215C131.825 14.0005 132.249 14.2742 132.604 14.6254C132.952 14.9917 133.22 15.4247 133.395 15.8982C133.57 16.3716 133.648 16.8757 133.622 17.3797V19.5854C133.622 20.0197 133.816 20.2369 134.182 20.2369C134.359 20.2451 134.536 20.2259 134.707 20.1797C134.944 20.1797 135.07 20.2711 135.084 20.454L135.187 21.8826Z" fill="#252525"/>
  <path d="M1.1756 12.3741C2.01877 8.98518 3.97152 5.97569 6.72292 3.82499C9.47435 1.67425 12.8662 0.505859 16.3585 0.505859C19.8507 0.505859 23.2426 1.67425 25.994 3.82499C28.7454 5.97569 30.6981 8.98518 31.5413 12.3741H30.1699C27.8564 12.34 25.5903 13.0315 23.6899 14.3512C23.5802 14.4307 23.4657 14.5032 23.347 14.5684H23.187C23.0684 14.5032 22.9539 14.4307 22.8442 14.3512C20.9269 13.062 18.6689 12.3734 16.3585 12.3734C14.0481 12.3734 11.79 13.062 9.87275 14.3512C9.76303 14.4307 9.64852 14.5032 9.52989 14.5684H9.36989C9.25126 14.5032 9.13675 14.4307 9.02703 14.3512C7.12657 13.0315 4.86052 12.34 2.54703 12.3741H1.1756ZM27.7013 19.5398C28.4053 18.9916 29.2779 18.7047 30.1699 18.7284H32.0099V15.0598H30.1699C28.5987 15.0408 27.0635 15.5299 25.7927 16.4541C25.0777 16.9813 24.2126 17.2657 23.3242 17.2657C22.4357 17.2657 21.5707 16.9813 20.8556 16.4541C19.5526 15.5471 18.0031 15.0608 16.4156 15.0608C14.8281 15.0608 13.2786 15.5471 11.9756 16.4541C11.2605 16.9813 10.3955 17.2657 9.50703 17.2657C8.61857 17.2657 7.75355 16.9813 7.03846 16.4541C5.75206 15.518 4.1948 15.0284 2.60417 15.0598H0.707031V18.7284H2.54703C3.43904 18.7047 4.3116 18.9916 5.0156 19.5398C6.31617 20.4475 7.86395 20.9341 9.44989 20.9341C11.0358 20.9341 12.5836 20.4475 13.8842 19.5398C14.5891 18.9933 15.461 18.7067 16.3527 18.7284C17.2451 18.7028 18.1182 18.9899 18.8213 19.5398C20.1243 20.4469 21.6738 20.9331 23.2613 20.9331C24.8489 20.9331 26.3983 20.4469 27.7013 19.5398ZM27.7013 26.0998C28.4053 25.5516 29.2779 25.2647 30.1699 25.2884H32.0099V21.6198H30.1699C28.5987 21.6008 27.0635 22.0899 25.7927 23.0141C25.0777 23.5413 24.2126 23.8257 23.3242 23.8257C22.4357 23.8257 21.5707 23.5413 20.8556 23.0141C19.5526 22.1071 18.0031 21.6209 16.4156 21.6209C14.8281 21.6209 13.2786 22.1071 11.9756 23.0141C11.2605 23.5413 10.3955 23.8257 9.50703 23.8257C8.61857 23.8257 7.75355 23.5413 7.03846 23.0141C5.75206 22.0781 4.1948 21.5884 2.60417 21.6198H0.707031V25.2884H2.54703C3.43904 25.2647 4.3116 25.5516 5.0156 26.0998C6.31617 27.0075 7.86395 27.4941 9.44989 27.4941C11.0358 27.4941 12.5836 27.0075 13.8842 26.0998C14.5891 25.5533 15.461 25.2667 16.3527 25.2884C17.2451 25.2628 18.1182 25.5499 18.8213 26.0998C20.1243 27.0069 21.6738 27.4931 23.2613 27.4931C24.8489 27.4931 26.3983 27.0069 27.7013 26.0998Z" fill="#252525"/>
</svg>